<svg width="240" height="51" viewBox="0 0 240 51" fill="none" xmlns="http://www.w3.org/2000/svg">
<path d="M69.808 44.7665H68.2287V34.1137L64.6471 44.7665H63.1608L59.5792 34.1137V44.7665H58V32.2386H60.4875L63.8833 42.6854L67.2998 32.2386H69.7873V44.7665H69.808Z" fill="white"/>
<path d="M74.0191 33.9798H72.3986V32.2386H74.0191V33.9798ZM74.0191 44.7665H72.3986V35.7003H74.0191V44.7665Z" fill="white"/>
<path d="M78.0137 36.8541C78.8188 35.9475 79.7271 35.4941 80.7283 35.4941C82.7823 35.4941 83.8041 36.6068 83.8041 38.8322V44.7664H82.1836V38.9043C82.1836 38.1625 82.0495 37.6268 81.7811 37.3074C81.5127 36.988 81.0792 36.8232 80.4806 36.8232C79.6548 36.8232 78.8394 37.3074 78.0137 38.2758V44.7664H76.3932V35.7002H78.0137V36.8541Z" fill="white"/>
<path d="M87.7675 33.9798H86.147V32.2386H87.7675V33.9798ZM87.7675 44.7665H86.147V35.7003H87.7675V44.7665Z" fill="white"/>
<path d="M93.3926 44.9827C90.9051 44.9827 89.6149 44.004 89.5013 42.0568H91.1218C91.1322 43.1592 91.8856 43.7155 93.3823 43.7155C94.0532 43.7155 94.5589 43.5816 94.9099 43.3034C95.2608 43.0252 95.4363 42.6853 95.4363 42.2629C95.4363 41.8405 95.2608 41.5623 94.9202 41.3974C94.5796 41.2326 93.8674 41.0162 92.8043 40.7484C91.7411 40.4805 90.9567 40.1817 90.4612 39.8521C89.9658 39.5224 89.7181 38.9454 89.7181 38.1109C89.7181 37.3588 90.0277 36.7407 90.6367 36.2462C91.2457 35.7517 92.0714 35.5044 93.0933 35.5044C95.4776 35.5044 96.6852 36.3492 96.7368 38.0388H95.1266C95.0647 37.1837 94.4247 36.7613 93.1965 36.7613C92.6494 36.7613 92.2056 36.8643 91.8443 37.0704C91.4831 37.2764 91.3076 37.5752 91.3076 37.9667C91.3076 38.317 91.4418 38.5746 91.7205 38.7291C91.9992 38.8836 92.6804 39.1 93.7745 39.3575C94.8686 39.6151 95.6943 39.9345 96.2207 40.2848C96.7471 40.6351 97.0258 41.2429 97.0258 42.1186C97.0258 42.9943 96.6955 43.6331 96.0349 44.1688C95.3743 44.7046 94.4867 44.9827 93.372 44.9827H93.3926Z" fill="white"/>
<path d="M102.445 44.7872C102.094 44.8594 101.702 44.8903 101.289 44.8903C100.628 44.8903 100.143 44.7769 99.8334 44.54C99.5238 44.303 99.338 44.0043 99.2554 43.6334C99.1729 43.2625 99.1419 42.7576 99.1419 42.1189V36.9779H98.0168V35.7107H99.1419V33.4545H100.752V35.7107H102.228V36.9779H100.752V42.2116C100.752 42.8298 100.835 43.2316 100.989 43.3964C101.144 43.5612 101.361 43.6437 101.64 43.6437C101.918 43.6437 102.187 43.6231 102.445 43.5715V44.7975V44.7872Z" fill="white"/>
<path d="M108.504 37.1632C108.277 37.0911 107.946 37.0602 107.523 37.0602C106.697 37.0602 105.996 37.4929 105.407 38.348V44.7562H103.787V35.6899H105.407V36.9571C106.088 35.9784 106.873 35.4839 107.771 35.4839C107.998 35.4839 108.246 35.5045 108.504 35.556V37.1632Z" fill="white"/>
<path d="M110.134 46.9507C110.929 46.9507 111.59 46.2192 112.096 44.7665L108.658 35.7003H110.403L112.808 42.7885L115.213 35.7003H116.957L113.52 44.7665C113.19 45.632 112.911 46.3016 112.674 46.7755C112.436 47.2495 112.137 47.6409 111.765 47.9603C111.394 48.2797 110.929 48.4445 110.392 48.4445C109.99 48.4445 109.639 48.4033 109.35 48.3209V46.8374C109.598 46.9198 109.856 46.961 110.124 46.961L110.134 46.9507Z" fill="white"/>
<path d="M126.732 35.4941C128.032 35.4941 129.064 35.9062 129.839 36.7304C130.613 37.5546 130.995 38.7291 130.995 40.2333C130.995 41.7375 130.613 42.9017 129.839 43.7362C129.064 44.5707 128.032 44.9828 126.732 44.9828C125.431 44.9828 124.409 44.5707 123.635 43.7362C122.861 42.9017 122.479 41.7375 122.479 40.2333C122.479 38.7291 122.861 37.5546 123.635 36.7304C124.409 35.9062 125.442 35.4941 126.732 35.4941ZM126.732 43.7156C127.506 43.7156 128.125 43.4271 128.61 42.8398C129.095 42.2526 129.333 41.3872 129.333 40.2333C129.333 39.0794 129.095 38.2037 128.61 37.6268C128.125 37.0498 127.506 36.7511 126.732 36.7511C125.958 36.7511 125.338 37.0395 124.853 37.6268C124.368 38.214 124.131 39.0794 124.131 40.2333C124.131 41.3872 124.368 42.2526 124.853 42.8398C125.338 43.4271 125.958 43.7156 126.732 43.7156Z" fill="white"/>
<path d="M134.69 36.9674V44.7664H133.08V36.9674H131.748V35.7002H133.08V34.8966C133.08 32.9804 133.926 32.0222 135.619 32.0222C136.135 32.0222 136.537 32.0531 136.826 32.1252V33.5264C136.506 33.4646 136.186 33.444 135.846 33.444C135.454 33.444 135.165 33.5573 134.969 33.7736C134.772 33.99 134.68 34.3712 134.68 34.9172V35.7002H136.403V36.9674H134.68H134.69Z" fill="white"/>
<path d="M151.906 44.7665H142.544V32.2386H151.607V33.7222H144.206V37.5548H151.132V39.0383H144.206V43.2727H151.906V44.7562V44.7665Z" fill="white"/>
<path d="M155.643 36.8541C156.448 35.9475 157.356 35.4941 158.357 35.4941C160.411 35.4941 161.433 36.6068 161.433 38.8322V44.7664H159.813V38.9043C159.813 38.1625 159.678 37.6268 159.41 37.3074C159.142 36.988 158.708 36.8232 158.109 36.8232C157.284 36.8232 156.468 37.3074 155.643 38.2758V44.7664H154.022V35.7002H155.643V36.8541Z" fill="white"/>
<path d="M171.125 35.7003L167.688 44.7665H166.253L162.816 35.7003H164.56L166.965 42.7885L169.37 35.7003H171.115H171.125Z" fill="white"/>
<path d="M174.16 33.9798H172.539V32.2386H174.16V33.9798ZM174.16 44.7665H172.539V35.7003H174.16V44.7665Z" fill="white"/>
<path d="M181.261 37.1632C181.034 37.0911 180.703 37.0602 180.28 37.0602C179.455 37.0602 178.753 37.4929 178.164 38.348V44.7562H176.544V35.6899H178.164V36.9571C178.846 35.9784 179.63 35.4839 180.528 35.4839C180.755 35.4839 181.003 35.5045 181.261 35.556V37.1632Z" fill="white"/>
<path d="M186.061 35.4941C187.361 35.4941 188.393 35.9062 189.167 36.7304C189.942 37.5546 190.323 38.7291 190.323 40.2333C190.323 41.7375 189.942 42.9017 189.167 43.7362C188.393 44.5707 187.361 44.9828 186.061 44.9828C184.76 44.9828 183.738 44.5707 182.964 43.7362C182.19 42.9017 181.808 41.7375 181.808 40.2333C181.808 38.7291 182.19 37.5546 182.964 36.7304C183.738 35.9062 184.77 35.4941 186.061 35.4941ZM186.061 43.7156C186.835 43.7156 187.454 43.4271 187.939 42.8398C188.424 42.2526 188.662 41.3872 188.662 40.2333C188.662 39.0794 188.424 38.2037 187.939 37.6268C187.454 37.0498 186.835 36.7511 186.061 36.7511C185.286 36.7511 184.667 37.0395 184.182 37.6268C183.697 38.214 183.46 39.0794 183.46 40.2333C183.46 41.3872 183.697 42.2526 184.182 42.8398C184.667 43.4271 185.286 43.7156 186.061 43.7156Z" fill="white"/>
<path d="M193.75 36.8541C194.555 35.9475 195.464 35.4941 196.465 35.4941C198.519 35.4941 199.541 36.6068 199.541 38.8322V44.7664H197.92V38.9043C197.92 38.1625 197.786 37.6268 197.518 37.3074C197.249 36.988 196.816 36.8232 196.217 36.8232C195.391 36.8232 194.576 37.3074 193.75 38.2758V44.7664H192.13V35.7002H193.75V36.8541Z" fill="white"/>
<path d="M214.156 44.7664H212.536V38.9043C212.536 38.1522 212.422 37.6165 212.205 37.2971C211.988 36.9777 211.627 36.8232 211.121 36.8232C210.337 36.8232 209.573 37.3074 208.82 38.2758V44.7664H207.21V38.9043C207.21 38.1522 207.096 37.6165 206.879 37.2971C206.663 36.9777 206.301 36.8232 205.785 36.8232C205.001 36.8232 204.237 37.3074 203.494 38.2758V44.7664H201.873V35.7002H203.494V36.8541C204.258 35.9475 205.104 35.4941 206.033 35.4941C207.364 35.4941 208.211 36.0402 208.572 37.1322C209.181 36.4214 209.687 35.9681 210.11 35.7826C210.533 35.5972 210.946 35.4941 211.349 35.4941C213.206 35.4941 214.135 36.6068 214.135 38.8322V44.7664H214.156Z" fill="white"/>
<path d="M220.349 44.9828C219.017 44.9828 217.944 44.5604 217.128 43.7259C216.313 42.8914 215.911 41.7272 215.911 40.2333C215.911 38.7394 216.303 37.5959 217.087 36.7511C217.872 35.9062 218.893 35.4941 220.163 35.4941C221.433 35.4941 222.496 35.9062 223.27 36.7304C224.044 37.5546 224.426 38.7291 224.426 40.2333V40.6145H217.583C217.655 41.6654 217.944 42.438 218.45 42.9429C218.955 43.4477 219.585 43.7053 220.339 43.7053C220.906 43.7053 221.412 43.561 221.866 43.2726C222.32 42.9841 222.558 42.572 222.578 42.0465H224.25C224.127 42.9841 223.703 43.7053 222.981 44.2101C222.258 44.7149 221.381 44.9725 220.339 44.9725L220.349 44.9828ZM222.733 39.3576C222.599 38.4819 222.31 37.8328 221.856 37.4001C221.402 36.9674 220.844 36.7511 220.173 36.7511C219.502 36.7511 218.976 36.9674 218.512 37.4001C218.047 37.8328 217.758 38.4819 217.634 39.3576H222.733Z" fill="white"/>
<path d="M227.853 36.8541C228.658 35.9475 229.566 35.4941 230.567 35.4941C232.621 35.4941 233.643 36.6068 233.643 38.8322V44.7664H232.023V38.9043C232.023 38.1625 231.888 37.6268 231.62 37.3074C231.352 36.988 230.918 36.8232 230.32 36.8232C229.494 36.8232 228.678 37.3074 227.853 38.2758V44.7664H226.232V35.7002H227.853V36.8541Z" fill="white"/>
<path d="M239.516 44.7872C239.165 44.8594 238.773 44.8903 238.36 44.8903C237.7 44.8903 237.215 44.7769 236.905 44.54C236.595 44.303 236.41 44.0043 236.327 43.6334C236.244 43.2625 236.213 42.7576 236.213 42.1189V36.9779H235.088V35.7107H236.213V33.4545H237.824V35.7107H239.3V36.9779H237.824V42.2116C237.824 42.8298 237.906 43.2316 238.061 43.3964C238.216 43.5612 238.433 43.6437 238.711 43.6437C238.99 43.6437 239.258 43.6231 239.516 43.5715V44.7975V44.7872Z" fill="white"/>
<path d="M64.0071 8.81076V9.07862C64.0071 9.18165 63.9968 9.44951 63.9762 9.89252C63.9658 10.3046 63.9452 11.1185 63.9039 12.3239C64.0381 12.3136 64.2549 12.2827 64.5645 12.2415C64.6987 12.2312 64.8432 12.2106 64.9877 12.19C65.2973 12.1591 65.4728 12.1385 65.5451 12.1179C65.8857 12.0767 66.1127 12.0458 66.2366 12.0458C66.8249 12.0458 67.1139 12.2312 67.1139 12.6021C67.1139 13.1378 66.8353 13.416 66.2882 13.416C66.216 13.416 66.1231 13.416 65.9992 13.3954C65.5038 13.4881 64.7916 13.5705 63.8729 13.6632V17.5782C64.7606 17.4752 65.5347 17.3515 66.185 17.2073C66.4637 17.1352 66.7527 17.1043 67.0314 17.1043C67.5681 17.1043 67.8365 17.2176 67.8261 17.4443C67.8261 18.0418 67.2584 18.4951 66.1231 18.8145C64.3581 19.309 62.8821 19.6181 61.6951 19.7417C60.9932 19.8242 60.3946 19.9478 59.8888 20.1126C59.445 20.432 59.1147 20.5865 58.9289 20.5865C58.9186 20.5865 58.8773 20.5762 58.805 20.5556C58.2786 20.535 58.0103 20.2054 58.0103 19.5563C58.0103 19.4636 58.0103 19.3502 58.0309 19.206C58.5367 18.3921 59.2695 17.9903 60.2294 17.9903C60.6216 17.9903 61.3235 17.9491 62.3247 17.8564C62.3247 17.8152 62.3247 17.7327 62.3041 17.6194C62.3041 17.5885 62.3041 17.4958 62.2834 17.3516V16.7231C62.2834 16.1874 62.2834 15.5383 62.2628 14.7965L62.2421 14.1887V13.7972L61.9531 13.8487C61.5712 13.9311 61.179 14.0032 60.7868 14.0857C60.5494 14.1166 60.3842 14.1475 60.281 14.1681C59.9507 14.3638 59.672 14.4565 59.4346 14.4668C59.3521 14.4978 59.2798 14.5184 59.2179 14.5184C59.0424 14.5184 58.836 14.4462 58.6296 14.302C58.5367 14.096 58.4954 13.8796 58.4954 13.6426C58.4954 13.3748 58.6296 13.0966 58.8979 12.8184C59.3108 12.6639 59.7133 12.5712 60.0849 12.5506C60.0849 12.5506 60.2501 12.53 60.5391 12.4991C60.9003 12.4579 61.4474 12.4269 62.1802 12.4166C62.1699 11.8191 62.1492 11.3143 62.1079 10.9022C62.0873 10.6137 62.077 10.3355 62.077 10.078C62.077 9.7895 62.0563 9.44952 62.0047 9.07862C61.3441 9.17135 60.7765 9.25377 60.312 9.34649C59.961 9.50103 59.6824 9.58345 59.4656 9.58345C59.383 9.60405 59.3211 9.61435 59.2592 9.61435C59.0837 9.61435 58.867 9.52163 58.6192 9.34649C58.5057 9.15074 58.4541 8.93439 58.4541 8.67682C58.4541 8.37805 58.5986 8.09988 58.8876 7.86293C59.3624 7.70839 59.7856 7.61567 60.1675 7.59506C60.312 7.58476 60.7042 7.54355 61.3338 7.46113C61.7157 7.41992 62.1802 7.3684 62.7376 7.32719C63.6149 7.24477 64.162 7.20356 64.389 7.17266C65.287 7.06963 65.9373 7.01812 66.3295 7.01812C66.9694 7.01812 67.2894 7.26538 67.2894 7.7599C67.2894 8.25442 67.0004 8.53259 66.4224 8.53259C66.3398 8.53259 66.2263 8.52229 66.0715 8.50168C65.5863 8.61501 64.8948 8.71804 63.9762 8.80046L64.0071 8.81076ZM79.5825 16.8673C79.3348 16.857 79.0354 16.8158 78.6742 16.7334H75.9699C75.6396 16.8261 75.3196 16.8673 74.9894 16.8673C75.0822 17.1146 75.1235 17.3309 75.1235 17.5061C75.1235 17.6606 74.9274 17.8976 74.5455 18.217L74.3804 18.3509L74.2152 18.4848C74.3288 18.6909 74.3804 18.8454 74.3804 18.9587C74.3804 19.1751 74.3288 19.5048 74.2152 19.9684C74.2049 20.0199 74.1739 20.1744 74.1327 20.4114C74.1017 20.5659 74.0398 20.8441 73.9469 21.2356C73.9056 21.4829 73.8643 21.6683 73.8436 21.7919C73.823 21.8744 73.8127 21.9156 73.8127 21.9259C73.8127 22.1731 73.9365 22.2968 74.1843 22.2968C74.9377 22.2968 76.0112 22.1422 77.3943 21.8435C77.7659 21.761 77.9826 21.7301 78.0342 21.7301C78.2303 21.7301 78.3232 21.8331 78.3232 22.0289C78.3232 22.3277 78.1684 22.6367 77.8691 22.9355C77.5904 23.2137 77.2911 23.3579 76.9917 23.3785C76.5273 23.3888 75.2887 23.5228 73.276 23.7803C73.0386 23.8834 72.8115 23.9864 72.605 24.0997C72.3677 24.2233 72.0993 24.2852 71.8103 24.2852C71.0878 24.2852 70.6027 23.9349 70.3446 23.2446V23.1416C70.3446 22.9664 70.4478 22.8222 70.6439 22.7398C70.7368 22.7089 70.9329 22.6161 71.2323 22.4719L71.2839 22.441C71.6142 22.3277 71.9032 21.9156 72.1612 21.1944C72.3264 20.7308 72.4193 20.3393 72.4296 20.0096V19.8448C71.6761 20.3393 70.7265 20.7926 69.5911 21.1944C68.4454 21.6683 67.5784 21.9053 67.0107 21.9053C66.0095 21.9053 65.5038 21.5653 65.5038 20.875C65.5038 20.7411 65.5347 20.5453 65.607 20.2878C65.8134 19.9375 66.1024 19.6284 66.4843 19.3399C66.8456 19.0824 67.1346 18.9484 67.3617 18.9381C67.7745 19.206 68.208 19.3399 68.6622 19.3399C69.0131 19.3399 69.6531 19.1648 70.5923 18.8042C71.5316 18.4539 72.3264 18.083 72.9663 17.7121C73.1934 17.4649 73.4101 17.2691 73.6062 17.1352H73.4721C73.245 17.2691 73.0695 17.3722 72.9353 17.434C72.8218 17.434 72.698 17.4752 72.5638 17.5679C72.4399 17.6091 72.316 17.64 72.2128 17.64C71.8 17.64 71.5316 17.4237 71.4181 17.0013C71.4284 16.9498 71.4387 16.8467 71.449 16.7128C71.4697 16.6201 71.4903 16.5067 71.5006 16.3728C71.511 16.2904 71.5316 16.1668 71.5729 16.0019C71.5935 15.9195 71.6039 15.7959 71.6039 15.6104C71.6039 14.7553 71.4387 14.1887 71.1187 13.8899C70.9742 13.756 70.8813 13.5911 70.8504 13.3851C70.8813 13.0039 71.0568 12.6742 71.3561 12.4063C71.48 12.3754 71.6142 12.3548 71.7587 12.3548C71.8825 12.3548 72.0477 12.3754 72.2644 12.4063H73.8849C74.081 12.4063 74.3288 12.396 74.6487 12.3754C75.0616 12.3342 75.5054 12.3033 75.9802 12.3033H76.2486C77.4872 12.3033 78.251 12.2621 78.54 12.1694H79.2831C79.376 12.1385 79.4999 12.087 79.6651 12.0354L79.8715 11.9633C80.1502 11.8706 80.3153 11.8294 80.3463 11.8294C80.6972 11.8294 81.1204 12.0458 81.6262 12.4682C81.8429 12.6639 81.9461 12.87 81.9461 13.1069C81.9461 13.4366 81.7397 13.8281 81.3372 14.2917C81.1307 14.7965 81.0172 15.3014 80.9862 15.8062C80.9449 16.4758 80.594 16.8261 79.9541 16.8467C80.0573 16.9395 80.1811 16.9807 80.3256 16.9807C80.6869 17.197 80.8624 17.4855 80.8624 17.8564C80.8624 18.3406 80.7075 18.7321 80.3876 19.0412C80.4082 19.0618 80.4805 19.1133 80.594 19.1751L80.6972 19.2266C80.8004 19.2987 80.914 19.3605 81.0378 19.4121C81.4507 19.5769 81.9461 19.8551 82.5035 20.226C83.4634 20.8544 84.6504 21.1738 86.0851 21.1738C86.9934 21.1738 87.6334 21.1532 87.9946 21.1017C88.1185 21.0811 88.201 21.0708 88.232 21.0708C88.5829 21.0708 88.7584 21.1635 88.7584 21.3592C88.7584 21.3798 88.7584 21.4107 88.7378 21.4417C88.7378 21.4829 88.7584 21.5138 88.7584 21.5241C88.7584 21.7404 88.4591 22.1113 87.8604 22.6574C86.8902 23.5331 86.0232 23.9864 85.2594 24.007C85.1768 24.0276 85.1046 24.0379 85.0426 24.0379C84.6607 24.0379 84.2891 23.8937 83.9279 23.5949C83.5253 23.2549 83.1847 22.9561 82.9164 22.6986C82.39 22.2143 81.5849 21.6271 80.5011 20.9265C79.7786 20.4629 79.2315 20.1847 78.8496 20.0817C78.7774 20.1641 78.7051 20.2157 78.6329 20.2466L78.6019 20.2672L78.5813 20.2466H78.5503C77.8484 20.4217 77.2601 20.5144 76.775 20.5144C76.3415 20.5144 76.1144 20.3702 76.1144 20.0714C76.1144 19.8963 76.3415 19.7314 76.806 19.5975C77.2291 19.4739 77.7246 19.1339 78.2923 18.5673C78.6019 18.2685 78.8084 17.877 78.8806 17.4031C78.9219 17.3103 79.0354 17.1661 79.2212 16.9601C79.3657 16.9601 79.4896 16.9188 79.5928 16.8261L79.5825 16.8673ZM82.5241 9.71738C83.9176 9.73798 84.6194 10.0368 84.6194 10.6137C84.6194 10.9022 84.4646 11.0876 84.1446 11.1494C84.0001 11.1803 83.6182 11.2009 83.0093 11.2009H81.5539C81.0275 11.2009 80.3772 11.2215 79.6134 11.2731C79.3451 11.2937 78.9012 11.3143 78.2923 11.3452C77.8897 11.3658 77.5285 11.3864 77.2085 11.3967C76.6305 11.4276 76.2486 11.4482 76.0628 11.4482C74.1017 11.5306 71.8929 11.7264 69.4466 12.0561C69.3641 12.0664 69.2918 12.0767 69.2092 12.0767C68.7035 12.0767 68.4041 11.747 68.3009 11.0773C68.4248 10.7373 68.6932 10.4798 69.1163 10.3046C69.6427 10.2325 70.1691 10.1913 70.6852 10.1707H70.8504C70.8504 10.1707 71.0155 10.181 71.2529 10.2016H71.5419C72.5638 10.2016 73.7301 10.1192 75.0203 9.96464C76.1867 9.8204 78.6948 9.73799 82.5241 9.72768V9.71738ZM80.1915 8.36775C78.9838 8.37805 77.6317 8.45017 76.1247 8.5841C75.7325 8.61501 75.4435 8.64592 75.2577 8.66652C74.8345 8.69743 74.5558 8.71804 74.4423 8.73864C74.0191 8.77985 73.6166 8.81076 73.245 8.82106C72.7599 8.82106 72.3057 8.88287 71.8929 9.0065C71.769 9.03741 71.6245 9.07862 71.4697 9.11983C71.2839 9.17135 71.1394 9.21256 71.0671 9.23316C70.902 9.28467 70.6646 9.35679 70.3549 9.43921C70.1898 9.48042 70.0659 9.51133 69.9834 9.51133C69.8492 9.51133 69.7047 9.49072 69.5498 9.43921C69.3537 9.28467 69.2196 9.06832 69.1473 8.80046C69.1679 8.60471 69.1886 8.45017 69.1989 8.31624C69.1989 8.24412 69.2299 8.14109 69.2505 7.99686C69.3021 7.82171 69.3331 7.62597 69.3331 7.41992C69.3331 6.5236 69.137 5.93635 68.7448 5.66849C68.5796 5.49334 68.4764 5.3079 68.4351 5.13276C68.4661 4.8855 68.559 4.65884 68.7241 4.44249C68.9615 4.15402 69.2712 3.99948 69.6531 3.99948C69.7356 3.99948 69.8595 4.02008 70.0246 4.05099H72.0477C72.1922 4.05099 72.3986 4.04069 72.6773 4.02008C73.3895 3.96857 74.6694 3.92736 76.517 3.91706C79.0767 3.90676 80.6146 3.86554 81.141 3.78312H81.8532L81.9565 3.75222C82.4725 3.59768 82.8235 3.51526 82.9886 3.51526C83.4325 3.51526 83.8453 3.74191 84.2375 4.20553C84.4543 4.45279 84.5575 4.67944 84.5575 4.8958C84.5575 5.23578 84.3511 5.63758 83.9485 6.1115C83.7524 6.5339 83.6389 7.04902 83.5976 7.62597C83.5357 8.32654 83.1538 8.66652 82.4519 8.66652C82.2455 8.66652 81.8739 8.61501 81.3165 8.50168C80.9243 8.50168 80.5527 8.46047 80.2018 8.36775H80.1915ZM74.143 7.32719C73.9675 6.9254 73.8437 6.36906 73.7714 5.67879C73.792 5.50365 73.8436 5.35941 73.9056 5.27699C72.9353 5.36971 72.089 5.41092 71.3665 5.41092C71.0878 5.51395 70.9329 5.75091 70.8917 6.1218C70.9123 6.24543 70.9329 6.37936 70.9639 6.51329C70.9846 6.63692 71.0155 6.79146 71.0362 6.98721C71.0671 7.15205 71.0878 7.27568 71.1084 7.3375C71.1084 7.43022 71.2013 7.51264 71.3458 7.60536C71.5626 7.60536 71.8722 7.56415 72.2954 7.47143C72.7908 7.47143 73.4101 7.43022 74.1533 7.3375L74.143 7.32719ZM78.7671 15.3838C79.0458 15.3735 79.2419 15.1983 79.3451 14.8583C79.4999 14.3329 79.5825 14.0032 79.5825 13.8796C79.5825 13.6426 79.3657 13.4778 78.9425 13.3954H77.0227C76.2176 13.3954 75.0306 13.4881 73.4411 13.6632C73.1521 13.7663 73.0076 13.9414 73.0076 14.1887C73.0076 14.4771 73.0592 14.9202 73.1727 15.5177C73.1727 15.6104 73.245 15.6928 73.3792 15.7856C73.5959 15.7856 73.8436 15.7547 74.1223 15.6825C74.2359 15.6619 74.3597 15.6413 74.5042 15.6104C74.5868 15.6104 74.7313 15.5898 74.9481 15.5589C75.9802 15.4353 76.7956 15.3735 77.384 15.3735H78.7877L78.7671 15.3838ZM77.6523 7.15205V6.62662C77.6523 6.02908 77.5801 5.53456 77.4459 5.12245H76.775C76.3724 5.12245 75.9699 5.16366 75.5983 5.25639V5.27699C75.5983 5.27699 75.6293 5.33881 75.6293 5.39032C75.6293 5.48304 75.557 5.56546 75.4229 5.65818C75.33 6.04968 75.2887 6.60602 75.2887 7.30659C75.7015 7.30659 76.0215 7.29629 76.2486 7.27568C76.486 7.24477 76.6099 7.22417 76.6202 7.22417C76.8369 7.22417 76.9711 7.21387 77.0227 7.19326C77.1259 7.15205 77.1775 7.12114 77.1879 7.12114C77.2911 7.13145 77.3633 7.14175 77.4046 7.14175H77.642L77.6523 7.15205ZM79.438 5.13276C79.3864 5.26669 79.3244 5.50365 79.2728 5.84363C79.1696 6.29694 79.1077 6.72965 79.0664 7.16235H80.7591C81.2339 7.16235 81.5126 7.15205 81.6158 7.12114C81.7087 7.09024 81.7913 7.00782 81.8636 6.86358C82.0803 6.38966 82.1835 5.98787 82.1835 5.66849C82.1835 5.41092 81.9771 5.23578 81.5746 5.14306H79.4483L79.438 5.13276Z" fill="white"/>
<path d="M97.1811 9.58331V9.39787C97.1604 9.04758 97.1501 8.64578 97.1501 8.20278C97.1398 7.4713 97.0675 6.95617 96.9437 6.6677C96.8714 6.51316 96.8405 6.36893 96.8405 6.2453C96.8405 5.80229 97.1811 5.52412 97.852 5.40049C98.8738 5.50351 99.3899 5.8538 99.3899 6.46165C99.3899 6.50286 99.3693 6.63679 99.3383 6.85314C99.2144 7.62583 99.1422 8.32641 99.1318 8.94456C99.1318 9.03728 99.1318 9.24333 99.1009 9.58331C99.6686 9.49059 100.154 9.44938 100.567 9.44938C101.062 9.44938 101.526 9.49059 101.97 9.58331C102.28 9.75846 102.466 10.0469 102.548 10.4281C102.507 10.6857 102.332 10.8711 102.043 10.9639C101.857 11.036 101.413 11.0669 100.742 11.0669H99.0699L99.0493 11.5923C99.0183 13.0759 98.9977 14.3431 98.9977 15.3836C99.9576 15.3115 100.814 15.1467 101.568 14.8788C101.939 14.7346 102.332 14.6625 102.734 14.6625C103.075 14.6625 103.24 14.7552 103.24 14.9509C103.24 14.9612 103.24 14.9818 103.219 15.023C103.219 15.4351 102.899 15.7751 102.259 16.0327C100.948 16.5684 99.1215 17.0629 96.7682 17.5163C96.056 17.6502 95.4161 17.8047 94.8381 17.9902C94.3529 18.3508 94.0123 18.5259 93.8265 18.5259C93.8059 18.5259 93.7646 18.5156 93.7233 18.495C93.6304 18.5053 93.5582 18.5156 93.5066 18.5156C93.104 18.5156 92.8976 18.2271 92.8976 17.6605C92.8976 17.5678 92.8976 17.4544 92.9182 17.3205C93.3621 16.5375 94.0123 16.0842 94.8793 15.9709C95.0548 15.9915 95.2096 16.0018 95.3128 16.0018C95.8083 16.0018 96.4379 15.8885 97.2017 15.6618C97.2017 15.6309 97.1811 15.5794 97.1811 15.5279C97.1707 15.4867 97.1604 15.4454 97.1604 15.4248V14.8891C97.1707 14.5182 97.1811 13.9825 97.1811 13.2716C97.1811 12.6741 97.1811 11.9941 97.1604 11.2111C96.3966 11.2935 95.6638 11.376 94.9619 11.479C94.8381 11.5305 94.7348 11.5614 94.6626 11.5614C94.5697 11.5614 94.4871 11.5305 94.3942 11.479C93.8059 11.4687 93.4756 11.2832 93.3827 10.9432C93.4859 10.6033 93.713 10.2942 94.0536 9.99542C94.8897 9.82027 95.5193 9.72755 95.9425 9.72755C96.2934 9.72755 96.696 9.68634 97.1604 9.59362L97.1811 9.58331ZM110.351 17.3102C110.186 18.0829 109.784 18.7629 109.164 19.3295C108.215 20.4937 106.945 21.5342 105.345 22.4306C104.664 22.853 104.045 23.1723 103.488 23.3784C103.075 23.5329 102.765 23.6154 102.579 23.6154C101.785 23.6154 101.237 23.0384 100.959 21.8948C100.979 21.4518 101.062 21.1634 101.217 20.9985C101.351 20.844 101.599 20.7616 101.939 20.7616C102.166 20.7616 102.507 20.8028 102.951 20.8749C103.106 20.9058 103.291 20.9264 103.508 20.9264C104.809 20.9264 106.006 20.3907 107.11 19.3089C107.823 18.6083 108.328 17.9902 108.628 17.4338C107.988 17.5472 107.554 17.6502 107.327 17.7326C107.307 17.7429 107.214 17.7738 107.059 17.8356L106.894 17.9078C106.646 18.0005 106.481 18.0417 106.388 18.0417C106.305 18.0417 106.223 18.0211 106.13 17.9696C105.872 17.9593 105.645 17.8562 105.459 17.6502C105.139 17.2896 104.984 17.0011 104.984 16.7848C104.984 16.6096 105.056 16.4551 105.191 16.3418C105.315 16.1769 105.449 16.043 105.593 15.94C105.975 15.5588 106.202 14.92 106.264 14.0134C106.274 13.797 106.285 13.6734 106.285 13.6425C106.285 13.0759 106.192 12.6844 105.996 12.4474C105.851 12.2826 105.738 12.0456 105.655 11.7571C105.758 11.1905 106.182 10.9123 106.935 10.9123C107.08 10.9123 107.255 10.9536 107.461 11.036C107.503 11.0463 107.565 11.0669 107.627 11.0875C107.926 11.1905 108.215 11.2626 108.494 11.3244C109.103 11.2935 109.815 11.242 110.62 11.1905C111.962 11.0978 112.787 11.0566 113.107 11.0566H114.377C115.409 11.0566 116.163 10.9123 116.637 10.6136C116.772 10.5311 116.906 10.4899 117.04 10.4899C117.081 10.4899 117.153 10.5105 117.246 10.5414C117.597 10.6342 117.907 10.8402 118.196 11.1802C118.217 11.2935 118.227 11.376 118.227 11.4172C118.227 11.5923 118.134 11.7984 117.959 12.025C117.597 12.4886 117.422 13.3849 117.422 14.7243C117.422 15.0127 117.463 15.363 117.556 15.7648C117.556 16.2181 117.401 16.589 117.122 16.8878C116.844 17.1866 116.513 17.3205 116.132 17.2999C115.636 17.2793 115.234 17.2175 114.914 17.1145H114.005C113.665 18.6289 113.5 19.721 113.5 20.3907C113.5 20.6791 113.665 20.8646 114.005 20.9264C114.346 21.0088 114.8 21.0706 115.388 21.1118C115.77 21.1427 116.214 21.2046 116.71 21.2767C117.195 21.3591 117.793 21.4106 118.495 21.4312C118.939 21.4724 119.187 21.5033 119.259 21.5033C120.302 21.5033 121.447 21.0912 122.717 20.2567C122.965 20.267 123.088 20.3701 123.088 20.5555C123.088 21.0191 122.696 21.7094 121.922 22.6263C121.22 23.4505 120.807 23.9038 120.673 23.9965C120.384 24.1717 120.074 24.2644 119.744 24.2644C119.445 24.2644 118.795 24.0996 117.824 23.7596C117.05 23.4917 115.874 23.162 114.315 22.7808H113.623C112.818 22.7808 112.292 22.6366 112.055 22.3584C111.652 21.8948 111.446 21.4621 111.446 21.0603C111.446 20.8852 111.538 20.607 111.714 20.2464C111.869 19.9477 111.951 19.5871 111.951 19.1647C112.075 18.6598 112.189 17.9696 112.292 17.1042C111.714 17.1042 111.074 17.1557 110.372 17.269L110.351 17.3102ZM107.482 7.02829H106.873C106.419 7.12101 106.078 7.16222 105.841 7.16222C105.294 7.16222 104.984 6.98708 104.912 6.62649C105.015 6.28651 105.232 5.97743 105.552 5.67866C105.913 5.59624 106.45 5.55503 107.172 5.54472L109.061 5.41079L110.95 5.27686C110.929 5.0399 110.754 4.85446 110.424 4.69992C110.042 4.54538 109.846 4.28782 109.835 3.92723C109.908 3.70057 110.001 3.52543 110.135 3.3915C110.424 3.13393 110.764 3 111.136 3C111.755 3 112.354 3.20605 112.932 3.60785C113.293 3.86541 113.469 4.12298 113.458 4.37024C113.458 4.6278 113.252 4.85446 112.818 5.0399C112.736 5.07081 112.622 5.14293 112.467 5.24595L112.416 5.27686C114.16 5.26656 115.419 5.23565 116.183 5.17383C116.462 5.15323 116.648 5.14293 116.72 5.14293C117.143 5.14293 117.566 5.18414 117.989 5.27686C118.268 5.452 118.454 5.68896 118.537 5.98773C118.485 6.41014 118.113 6.62649 117.391 6.62649H115.636C115.616 6.71921 115.585 6.87375 115.554 7.0798C115.502 7.39918 115.44 7.78037 115.368 8.24399H118.041C119.662 8.24399 120.467 8.54276 120.467 9.14031C120.467 9.42878 120.312 9.61422 119.992 9.67604C119.847 9.70694 119.476 9.72755 118.877 9.72755H117.422C116.895 9.72755 116.214 9.74815 115.399 9.79967C114.356 9.85118 113.076 9.91299 111.569 9.96451C110.981 9.98511 109.908 10.0572 108.339 10.1809C106.522 10.3251 105.387 10.4384 104.922 10.5002C104.644 10.5414 104.447 10.5724 104.344 10.5724C103.715 10.5724 103.353 10.2427 103.261 9.59362C103.384 9.26394 103.642 9.00637 104.035 8.82093C104.644 8.72821 105.232 8.68699 105.789 8.68699H108.091C108.05 7.96582 107.916 7.46099 107.688 7.17252C107.668 7.13131 107.637 7.0901 107.585 7.0592C107.565 7.04889 107.544 7.03859 107.534 7.03859H107.482V7.02829ZM115.688 14.7552C115.079 14.714 114.542 14.6831 114.067 14.6831C112.694 14.6831 110.579 14.8376 107.719 15.157C107.709 15.1776 107.688 15.2394 107.668 15.3218L107.637 15.4351L107.616 15.5485C107.585 15.6618 107.565 15.7442 107.544 15.7854C107.534 16.1357 107.627 16.3109 107.812 16.3109C107.885 16.3109 107.967 16.28 108.081 16.2284C110.506 16.0533 112.385 15.9606 113.727 15.9606H115.141C115.481 15.9606 115.646 15.8163 115.646 15.5176V15.4351C115.646 15.3115 115.646 15.1673 115.667 14.9921C115.677 14.8788 115.688 14.7964 115.688 14.7346V14.7552ZM107.854 13.8073C108.205 13.7764 108.628 13.7249 109.134 13.6734L109.66 13.6219C110.269 13.5704 110.744 13.5395 111.074 13.5395C111.27 13.5395 111.817 13.5189 112.736 13.4674C113.231 13.4468 113.623 13.4159 113.912 13.3849C114.614 13.3025 115.017 13.2613 115.141 13.2613H115.75C115.75 13.1377 115.75 13.0038 115.77 12.8698C115.781 12.7771 115.791 12.7153 115.791 12.6844C115.791 12.6638 115.791 12.6432 115.812 12.6329V12.602C115.812 12.4371 115.543 12.3341 115.017 12.3135C114.274 12.2723 113.727 12.2414 113.376 12.2414C113.045 12.2414 112.529 12.262 111.807 12.3135C110.434 12.3341 109.361 12.4165 108.597 12.5504C108.101 12.5607 107.854 12.7565 107.854 13.1274V13.797V13.8073ZM109.546 8.51185H110.764C111.002 8.51185 111.342 8.49125 111.776 8.43973C112.251 8.39852 112.849 8.36762 113.572 8.36762C113.572 8.2955 113.592 8.14096 113.623 7.8834L113.654 7.54341C113.706 7.1004 113.758 6.79133 113.809 6.61619C113.087 6.70891 112.405 6.75012 111.745 6.75012C110.929 6.76042 110.197 6.80163 109.546 6.88405V7.01799C109.546 7.01799 109.536 7.15192 109.515 7.30646C109.515 7.31676 109.536 7.38888 109.567 7.51251C109.588 7.58462 109.598 7.64644 109.598 7.69795C109.598 7.94521 109.577 8.21308 109.546 8.51185Z" fill="white"/>
<path d="M136.145 6.11154C136.156 6.06003 136.166 5.98791 136.176 5.90549V5.83337C136.197 5.56551 135.949 5.32855 135.433 5.1225C135.134 4.99887 134.969 4.78252 134.958 4.48374C135.113 3.76257 135.598 3.40198 136.414 3.40198C136.878 3.40198 137.415 3.52561 138.034 3.77287C138.653 4.23648 138.953 4.60737 138.942 4.88554C138.953 5.1431 138.684 5.35946 138.137 5.5243C137.921 5.74065 137.694 5.9261 137.466 6.10124C138.674 6.00852 139.83 5.96731 140.945 5.96731C142.431 5.96731 143.174 6.24547 143.174 6.79151C143.174 7.33754 142.854 7.5848 142.225 7.5848H140.842C140.563 8.45022 140.367 9.56289 140.264 10.9228H142.421C143.979 10.9228 144.754 11.2113 144.754 11.7985C144.754 12.1282 144.599 12.3446 144.299 12.4579C144.155 12.5094 143.701 12.5403 142.947 12.5403H141.358C140.79 12.5403 140.119 12.5609 139.314 12.6124C139.066 12.633 138.117 12.6846 136.476 12.7464C135.299 12.7979 134.143 12.8906 133.018 13.0142C130.726 13.2718 129.24 13.4057 128.58 13.4057C128.033 13.4057 127.702 13.0761 127.599 12.4064C127.909 11.6852 128.838 11.3246 130.386 11.3246C130.406 11.3246 130.499 11.3349 130.654 11.3555C130.871 11.3761 131.16 11.3864 131.532 11.3864C131.924 11.3864 132.44 11.3658 133.069 11.3143C133.069 9.71743 132.842 8.68717 132.43 8.21326C132.368 8.12053 132.275 8.07932 132.141 8.07932C131.717 8.07932 131.243 8.12053 130.737 8.21326C130.654 8.22356 130.582 8.23386 130.499 8.23386C129.983 8.23386 129.674 7.92479 129.591 7.30663C129.736 6.93574 130.004 6.66788 130.406 6.49274C131.026 6.41032 131.728 6.3691 132.502 6.3588C132.997 6.3588 133.947 6.32789 135.351 6.25578L135.98 6.22487C136.021 6.13215 136.083 6.09094 136.145 6.09094V6.11154ZM138.075 20.9472H136.827C136.496 20.9369 136.166 20.9575 135.825 21.0193C135.691 21.0399 135.526 21.0605 135.34 21.0708C135.123 21.1017 134.979 21.1223 134.907 21.1429C134.669 21.1738 134.442 21.1944 134.225 21.215C133.947 21.2254 133.647 21.3181 133.348 21.4829L133.245 21.5344C133.173 21.5756 133.121 21.6168 133.08 21.6375C132.956 21.7302 132.822 21.7714 132.677 21.7714C132.43 21.8641 132.141 21.9053 131.8 21.9053C131.593 21.7096 131.459 21.4829 131.397 21.1944C131.397 21.1223 131.418 21.0296 131.428 20.8957C131.449 20.7308 131.47 20.5248 131.501 20.2878C131.573 19.9993 131.604 19.7212 131.604 19.4636C131.604 18.0728 131.397 17.1662 130.995 16.7541C130.788 16.4759 130.695 16.208 130.695 15.9608C130.695 15.6105 130.902 15.2602 131.304 14.8996C131.459 14.8584 131.614 14.8275 131.759 14.8275C131.903 14.8275 132.089 14.8481 132.316 14.8996H133.131C133.462 14.8996 133.792 14.879 134.143 14.8275C134.411 14.7863 134.711 14.7554 135.02 14.7554C135.309 14.7451 135.671 14.7245 136.083 14.6832C136.507 14.642 136.981 14.6111 137.487 14.6111H138.447C139.097 14.6111 139.572 14.5596 139.851 14.4463C139.933 14.4051 140.181 14.3124 140.594 14.1784C140.935 14.1887 141.306 14.2917 141.709 14.4772C142.214 14.9202 142.462 15.3117 142.452 15.662C142.452 16.1256 142.38 16.4862 142.245 16.7541C142.225 16.7953 142.163 16.9292 142.08 17.1558C142.039 17.2589 141.998 17.3516 141.967 17.4237C141.729 17.9491 141.575 18.7115 141.513 19.7006C141.451 20.6896 141.038 21.1841 140.295 21.1841C140.078 21.1841 139.706 21.1017 139.18 20.9472H138.096H138.075ZM139.252 19.3297C139.49 19.3194 139.655 19.1133 139.758 18.7012C139.964 17.9388 140.057 17.1971 140.057 16.4965C140.057 16.2389 139.84 16.0535 139.417 15.9608H136.816C136.352 15.9608 135.299 16.0535 133.637 16.2286C133.348 16.3316 133.204 16.5686 133.204 16.9498C133.204 17.0734 133.204 17.2795 133.235 17.5783C133.245 17.7019 133.266 17.9182 133.286 18.2376C133.286 18.4746 133.307 18.66 133.317 18.8146C133.348 19.1442 133.369 19.3194 133.369 19.34C133.379 19.5872 133.462 19.7521 133.606 19.8448C133.792 19.8448 134.215 19.783 134.855 19.6594C135.887 19.443 136.868 19.34 137.797 19.34H139.252V19.3297ZM134.453 7.86297C134.484 8.12053 134.525 8.48112 134.556 8.94474C134.587 9.45986 134.607 9.81015 134.607 9.98529C134.607 10.2841 134.587 10.6962 134.556 11.201H135.32C135.423 11.201 136.042 11.1598 137.177 11.0671L137.807 11.0155L138.416 10.964L138.819 10.9331V9.2126C138.819 8.57385 138.839 8.02781 138.891 7.59511C137.766 7.68783 136.517 7.72904 135.144 7.72904C134.896 7.82176 134.669 7.86297 134.473 7.86297H134.453ZM148.098 16.8674C148.273 20.1642 148.366 22.3792 148.366 23.5228C148.366 24.2955 148.056 24.7385 147.458 24.8518C146.756 24.7282 146.405 24.244 146.405 23.3889C146.405 23.2446 146.415 22.9562 146.436 22.5338C146.457 22.1423 146.467 21.2666 146.467 19.9066C146.467 18.8764 146.415 17.331 146.333 15.2911C146.302 12.7773 146.25 11.201 146.178 10.5828C146.064 9.47017 145.848 8.58415 145.538 7.91448C145.332 7.52299 145.218 7.183 145.187 6.88423C145.404 5.98791 145.827 5.5346 146.457 5.5346C146.942 5.5346 147.324 5.77156 147.592 6.24548C148.913 5.957 150.234 5.80247 151.576 5.80247C153.558 5.80247 154.9 6.01882 155.591 6.46183C156.107 6.78121 156.365 7.30664 156.365 8.04842C156.365 8.54294 155.963 9.11988 155.168 9.78954C154.683 10.1913 154.26 10.4798 153.888 10.6447C153.826 10.6653 153.671 10.7477 153.413 10.8816C153.341 10.9125 153.259 10.9537 153.166 11.0052C153.124 11.0258 153.073 11.0465 153.032 11.0774C153.021 11.3452 153.362 11.6749 154.043 12.0561C154.683 12.7155 155.003 13.313 155.003 13.8281C155.003 13.8693 155.003 13.9415 154.982 14.0445C154.993 14.1887 155.003 14.3021 155.003 14.3845C155.003 15.1263 154.631 15.7444 153.909 16.2389C153.011 16.8571 151.793 17.1662 150.255 17.1662C149.77 17.1662 149.047 17.0734 148.098 16.8777V16.8674ZM147.891 7.72904C147.933 9.14048 147.964 10.4489 147.964 11.644C148.139 11.4379 148.438 11.3452 148.862 11.3452C150.131 11.3246 151.091 11.0774 151.731 10.6034C153.083 9.5938 153.754 8.85201 153.744 8.3781C153.764 8.22356 153.775 8.09993 153.775 8.02781C153.775 7.65692 153.62 7.39936 153.3 7.26543C153.093 7.1727 152.515 7.13149 151.545 7.13149C150.575 7.13149 149.471 7.24482 148.335 7.47147C148.232 7.54359 148.139 7.59511 148.046 7.65692C147.974 7.69813 147.922 7.72904 147.891 7.73934V7.72904ZM147.995 12.9936V14.0033C147.995 14.6626 148.005 15.1469 148.026 15.4353L148.046 15.6208C148.046 15.7753 148.067 15.8886 148.067 15.9608C148.521 15.9814 148.841 15.9917 149.027 15.9917C150.193 15.9917 151.132 15.8371 151.814 15.5177C152.732 15.3426 153.197 14.8584 153.197 14.0651C153.197 13.6839 152.98 13.2718 152.557 12.8185C151.979 12.5506 151.463 12.4167 150.988 12.4167C150.162 12.4167 149.481 12.5094 148.944 12.6846C148.583 12.8803 148.263 12.973 147.995 12.9833V12.9936Z" fill="white"/>
<path fill-rule="evenodd" clip-rule="evenodd" d="M25.483 25.4358L1.99114 35.2713C0.845634 32.5415 0.16193 29.5663 0.0239896 26.5672C0.0059974 26.19 0 25.8129 0 25.4358C0 11.4278 11.449 0 25.483 0C39.5169 0 50.9599 11.4278 50.9599 25.4358C50.9599 27.3215 50.6601 29.4107 50.2582 31.2006L25.477 25.4358H25.483Z" fill="#2878B9"/>
<path fill-rule="evenodd" clip-rule="evenodd" d="M29.4533 21.8081L38.5213 33.5472L50.2762 31.0689C47.6854 42.5746 37.2199 50.9075 25.369 50.9075C14.2079 50.9075 4.14422 43.4665 0.959595 32.8588L21.6147 33.4275L29.4473 21.8081H29.4533Z" fill="#9EC317"/>
<path fill-rule="evenodd" clip-rule="evenodd" d="M0.0239258 26.7108L8.70817 26.6689C12.0667 21.6464 15.4193 16.6179 18.7778 11.5954C19.3596 10.9848 19.8094 10.913 20.3311 11.0926L22.976 13.9002L12.4925 28.5546L0.101892 28.5187L0.0299232 26.7108H0.0239258Z" fill="white"/>
<path fill-rule="evenodd" clip-rule="evenodd" d="M0.665649 31.7213H17.4764L29.981 13.1818L42.8694 31.7213H49.9463L49.5685 32.727H41.352L29.981 16.3306L18.5139 32.9844L0.983512 32.8587L0.665649 31.7213Z" fill="#9EC317"/>
<path fill-rule="evenodd" clip-rule="evenodd" d="M1.22348 33.6549L0.959595 32.8588L18.472 32.775L30.017 16.2887L41.4241 32.745H49.8504L49.1367 34.6666H37.5677L29.5552 23.3645L22.5143 34.4152L1.47537 34.4272L1.22348 33.6549Z" fill="white"/>
<path fill-rule="evenodd" clip-rule="evenodd" d="M0.665667 31.7214L0.491742 30.8055L0.383789 29.7579L13.5301 29.8177L28.6316 7.20152C29.0034 6.89622 29.2193 6.68071 29.939 6.73459C30.2988 6.79445 30.6227 6.86629 31.1505 7.40505L46.8217 30.0153H50.5641L50.1622 31.7154L42.8934 31.6915L29.891 13.3914L17.5663 31.8172L0.671664 31.7154L0.665667 31.7214Z" fill="white"/>
</svg>
