<svg width="180" height="36" viewBox="0 0 180 36" fill="none" xmlns="http://www.w3.org/2000/svg">
<g clip-path="url(#clip0_2004_477)">
<path d="M9.44012 18.2656C9.44012 18.2656 12.4728 11.5685 23.9986 10.7513C23.9986 10.7513 13.4914 14.0767 8.70036 20.3479" fill="#68C6E5"/>
<path d="M9.96522 14.6783C9.96522 14.6783 9.77054 1.87407 19.9631 6.01453C19.9631 6.01453 30.0851 9.90679 29.3884 31.4557C29.3884 31.4557 35.6717 11.4422 21.5867 1.97188C21.5867 1.97188 17.0187 -1.47342 13.0958 1.66584C13.0958 1.66584 7.78802 5.10378 9.96627 14.6783H9.96522Z" fill="#3493D1"/>
<path d="M23.5461 28.7256C23.5461 28.7256 12.3518 34.9547 11.1796 24.0214C11.1796 24.0214 9.8221 13.2669 29.1475 3.68616C29.1475 3.68616 8.53304 7.62259 6.84832 24.5041C6.84832 24.5041 5.97176 30.1558 10.5955 32.1246C10.5955 32.1246 16.1369 35.1724 23.5472 28.7245L23.5461 28.7256Z" fill="#194198"/>
<path d="M26.9461 9.57343C26.9461 9.57343 39.7904 13.981 32.8326 20.7959C32.8326 20.7959 26.1411 27.6413 4.80793 19.3898C4.80793 19.3898 23.061 31.6387 36.422 23.5586C36.422 23.5586 41.1289 21.0725 39.078 16.7606C39.078 16.7606 37.1133 11.2161 26.945 9.57343H26.9461Z" fill="#68C6E5"/>
<path d="M6.13066 19.4665C5.94125 21.1534 4.41963 22.3671 2.73175 22.1778C1.04387 21.9885 -0.170471 20.4677 0.0189413 18.7808C0.208354 17.094 1.72997 15.8814 3.41785 16.0696C5.10573 16.2589 6.32007 17.7796 6.13066 19.4665Z" fill="#68C6E5"/>
<path d="M3.26947 18.9712C2.44658 19.7295 1.37535 19.9061 0.87656 19.3645C0.377773 18.824 0.640846 17.7702 1.46374 17.013C2.28663 16.2547 3.35892 16.078 3.85771 16.6196C4.35649 17.1602 4.09342 18.2129 3.27053 18.9712H3.26947Z" fill="white"/>
<path d="M32.6895 33.2698C32.5001 34.9567 30.9785 36.1704 29.2906 35.9811C27.6027 35.7918 26.3884 34.271 26.5778 32.5841C26.7672 30.8972 28.2888 29.6836 29.9767 29.8729C31.6646 30.0622 32.8789 31.5829 32.6895 33.2698Z" fill="#3493D1"/>
<path d="M29.8294 32.7745C29.0065 33.5328 27.9352 33.7095 27.4364 33.1689C26.9377 32.6283 27.2007 31.5746 28.0236 30.8174C28.8465 30.0591 29.9188 29.8824 30.4176 30.423C30.9164 30.9635 30.6533 32.0163 29.8304 32.7745H29.8294Z" fill="white"/>
<path d="M34.1417 3.41588C33.9522 5.10277 32.4306 6.31641 30.7427 6.12711C29.0549 5.9378 27.8405 4.41708 28.0299 2.73019C28.2193 1.04329 29.741 -0.169291 31.4288 0.0189591C33.1167 0.208261 34.3311 1.72899 34.1417 3.41588Z" fill="#194198"/>
<path d="M31.2815 3.02568C30.4586 3.78394 29.3874 3.96063 28.8886 3.42006C28.3898 2.8795 28.6529 1.82572 29.4758 1.06851C30.2987 0.310251 31.371 0.133569 31.8697 0.674132C32.3685 1.21469 32.1055 2.26742 31.2826 3.02568H31.2815Z" fill="white"/>
<path d="M27.4185 8.01697C27.4185 8.01697 28.8612 10.3717 29.3695 12.1806C29.8767 13.9894 27.1839 12.3162 27.1839 12.3162L25.9716 8.97294L27.4196 8.01697H27.4185Z" fill="#3493D1"/>
<path d="M48.4634 4.24035C48.2234 4.20775 48.0488 4.10363 47.9393 3.92905L47.8741 3.65036C47.8741 3.50838 47.8962 3.39375 47.9393 3.30646C48.0593 3.16448 48.234 3.07194 48.4634 3.02777H54.8834C55.0802 3.06037 55.2433 3.15292 55.3748 3.30646L55.4243 3.63353L55.3748 3.8954C55.277 4.05946 55.1128 4.1741 54.8834 4.2393H52.4273V7.56155H53.3607C53.5901 7.59415 53.7869 7.70879 53.95 7.90545L53.9995 8.23252L53.95 8.52699C53.7859 8.72366 53.5901 8.83829 53.3607 8.87089H52.4273V13.1754L54.7203 12.1448L55.0149 12.0953L55.3748 12.1448C55.5274 12.2973 55.6368 12.4887 55.7021 12.7179C55.6474 12.9693 55.5379 13.1544 55.3748 13.2743L48.235 16.6459L47.8751 16.728C47.7773 16.728 47.6783 16.7006 47.5805 16.6459C47.3616 16.5145 47.2532 16.3241 47.2532 16.0728C47.2532 15.8761 47.3679 15.6521 47.5973 15.4018L48.2361 15.0905V6.82538C48.2361 6.64028 48.3508 6.45413 48.5802 6.26904C48.6559 6.23644 48.7654 6.20909 48.9074 6.18701C49.0274 6.18701 49.1589 6.21435 49.301 6.26904L49.5135 6.53091C49.5788 6.60768 49.6282 6.70548 49.6609 6.82538V14.5342L50.9215 13.88V4.24035H48.4655H48.4634ZM62.2526 3.50418C62.362 3.50418 62.4683 3.53152 62.5715 3.58621C62.6746 3.64089 62.7651 3.71767 62.8419 3.81547L62.8913 4.01214L62.9082 4.19197C62.9082 4.34447 62.8861 4.4591 62.8429 4.53587C62.6904 4.74305 62.4988 4.84717 62.2694 4.84717H61.7949C61.4676 8.14313 60.7847 10.7229 59.7481 12.5886C60.61 13.6581 61.6044 14.4921 62.7282 15.0926C62.8808 15.2777 62.9576 15.4859 62.9576 15.7142V15.7794C62.9134 16.0517 62.7777 16.2379 62.5483 16.3357L62.2537 16.3683C62.1011 16.3683 61.9474 16.3189 61.7949 16.2211C60.7794 15.6321 59.7808 14.7803 58.7979 13.6676C57.3679 14.9328 55.7905 15.8551 54.0647 16.4335L53.8522 16.4503C53.7101 16.4503 53.5796 16.4125 53.4586 16.3357C53.2618 16.1716 53.164 15.9865 53.164 15.7794C53.1966 15.5606 53.3281 15.3534 53.5575 15.1578C54.3983 14.8308 55.1759 14.4479 55.8915 14.0125C56.606 13.5761 57.2647 13.0576 57.8645 12.4582C57.2205 11.1593 56.7723 9.72485 56.5218 8.15365C56.1398 8.89613 55.7852 9.52819 55.4569 10.0519C55.3043 10.2707 55.097 10.379 54.835 10.379C54.5403 10.379 54.3215 10.2423 54.1794 9.96989L54.1142 9.67542C54.1142 9.53345 54.1521 9.38095 54.2289 9.21689C55.3422 7.39433 56.0799 5.13638 56.4397 2.44093C56.4397 2.20115 56.5765 1.99922 56.8491 1.83516L57.1932 1.76996L57.5857 1.83516C57.7056 1.98766 57.8151 2.21166 57.9129 2.50613L57.8151 2.98044L57.7983 3.50418H62.2526ZM60.4016 4.84612H57.6173C57.6173 6.15546 57.7235 7.32282 57.9372 8.34821C58.1497 9.37359 58.4633 10.3559 58.879 11.294C59.6324 9.59234 60.1396 7.44271 60.4016 4.84507V4.84612Z" fill="#231916"/>
<path d="M78.5474 2.84897C78.6568 2.84897 78.7599 2.87631 78.8588 2.931C78.9683 2.9636 79.0661 3.04038 79.1535 3.16027L79.2029 3.35693L79.2198 3.52099C79.2198 3.64088 79.1977 3.73974 79.1545 3.81546C78.9799 4.05525 78.7778 4.17514 78.5484 4.17514H67.1994C66.8069 4.22982 66.6102 4.40966 66.6102 4.7157L66.627 4.76513V9.24948C66.627 10.5914 66.4955 11.9123 66.2334 13.2101C66.0367 14.1703 65.7588 15.1189 65.3979 16.0581L65.0864 16.3199C64.9886 16.3851 64.8739 16.4177 64.7423 16.4177C64.5129 16.4177 64.3162 16.2978 64.1531 16.0581L64.071 15.6984L64.1531 15.3219C64.4803 14.5363 64.7423 13.636 64.9391 12.6212C65.1359 11.6063 65.2338 10.4663 65.2338 9.20006V4.0605C65.2338 3.25282 65.6536 2.84897 66.4944 2.84897H71.3086V2.37466C71.3086 2.27686 71.336 2.178 71.3907 2.08019L71.6527 1.75312L71.9642 1.72052L72.3736 1.75312C72.5261 1.93927 72.6356 2.1454 72.7008 2.37466V2.84897H78.5474ZM68.0497 11.2287C67.8424 11.4033 67.6288 11.4906 67.4109 11.4906L67.0669 11.4086C66.8375 11.3108 66.6901 11.0973 66.6249 10.7702L66.608 10.7208L66.6249 10.4421L66.7722 10.1476C67.6235 8.76256 68.2791 7.11458 68.7379 5.20473C68.8031 4.98703 68.9557 4.7788 69.1967 4.58319L69.5566 4.56636L69.9333 4.58319L70.1785 5.00912L70.3258 5.35302L70.1943 6.00716L69.9322 7.05463V16.057C69.867 16.2863 69.7576 16.4934 69.605 16.6785L69.2114 16.7437C69.0694 16.7437 68.9547 16.7217 68.8673 16.6785C68.6379 16.5145 68.5232 16.3189 68.5232 16.0896L68.5401 10.3117L68.0486 11.2287H68.0497ZM76.2218 5.25521C76.2544 5.04803 76.3796 4.84085 76.5985 4.63367L76.9258 4.58424L77.3351 4.63367L77.5151 4.91236L77.6624 5.25626V6.32056H78.9399C79.0598 6.32056 79.1745 6.35316 79.284 6.41837C79.3934 6.48357 79.5081 6.58769 79.6281 6.72966L79.6775 7.10616L79.6281 7.41746C79.4092 7.61412 79.1798 7.71193 78.9399 7.71193H77.6624V14.4711C77.6624 15.9981 76.7837 16.7627 75.0253 16.7627H74.878C74.5613 16.7627 74.3403 16.7543 74.2151 16.7385C74.0899 16.7217 73.9068 16.687 73.6668 16.6323C73.2522 16.5671 72.8755 16.4629 72.5367 16.321C72.3946 16.2442 72.2831 16.1548 72.201 16.0507C72.1189 15.9466 72.0726 15.813 72.0621 15.65C72.0621 15.3986 72.1652 15.1757 72.3736 14.979H72.865L73.1596 15.0285L74.0772 15.2903C74.3824 15.345 74.6507 15.3724 74.8801 15.3724L75.1421 15.405C75.863 15.405 76.2228 14.958 76.2228 14.063V7.71298H71.0803C70.8183 7.71298 70.6057 7.59309 70.4415 7.35331L70.3269 7.05884L70.3763 6.86218L70.4415 6.68234C70.572 6.50776 70.7856 6.38787 71.0803 6.32266H76.2228V5.25837L76.2218 5.25521ZM71.1939 9.55973C71.1287 9.43984 71.0845 9.31469 71.0624 9.18323C71.0624 9.09594 71.095 8.97605 71.1603 8.82356C71.2908 8.60586 71.4928 8.4744 71.7664 8.43128C71.9737 8.43128 72.1757 8.53539 72.3725 8.74258C73.1807 9.93202 73.9278 11.2088 74.616 12.5728L74.6328 12.7852L74.5834 13.3416L74.2561 13.554L73.9446 13.6192L73.8952 13.6024C73.6437 13.5372 73.4364 13.3847 73.2733 13.1438C73.1417 12.9041 73.0165 12.6643 72.8966 12.4234C72.6777 12.0091 72.4651 11.6273 72.2578 11.2782C72.1484 11.0815 71.9853 10.806 71.7664 10.4516C71.5475 10.0971 71.357 9.79951 71.1929 9.55973H71.1939Z" fill="#231916"/>
<path d="M83.8699 5.1574L84.3445 5.04277L84.5739 5.0596C84.7591 5.1574 84.9116 5.32146 85.0326 5.55073C85.0326 5.80208 84.9506 6.004 84.7875 6.1565C84.2855 6.54983 83.7825 6.90109 83.2806 7.21238C82.7786 7.52368 82.2493 7.80974 81.6916 8.0716L81.3149 8.13681L80.9708 8.0716C80.7519 7.90754 80.6435 7.70667 80.6435 7.46584C80.6762 7.24814 80.7909 7.03465 80.9876 6.82747C81.8716 6.44571 82.8323 5.88937 83.8699 5.15845V5.1574ZM81.3644 15.3703C81.8558 15.3703 82.2072 15.3618 82.4209 15.3461C82.6334 15.3292 82.9175 15.2966 83.2722 15.2483C83.6268 15.1988 83.9793 15.1504 84.3287 15.101C84.678 15.0516 85.1042 14.978 85.6061 14.8802L85.885 14.8476C86.005 14.8476 86.147 14.8802 86.3112 14.9454C86.4753 15.0106 86.5732 15.1526 86.6058 15.3713C86.5953 15.5017 86.5458 15.6163 86.4585 15.7152C86.3933 15.813 86.3112 15.895 86.2123 15.9613C85.3936 16.2232 84.5749 16.4409 83.7562 16.6154C82.9375 16.79 82.1567 16.8773 81.4149 16.8773C81.1086 16.8121 80.8908 16.6586 80.7593 16.4188L80.7098 16.1243C80.7098 15.9928 80.753 15.8351 80.8414 15.65C81.016 15.4975 81.2612 15.3881 81.578 15.3229L81.3654 15.3724L81.3644 15.3703ZM84.1645 2.29263C84.3718 2.32523 84.5791 2.44512 84.7864 2.65231L84.8359 3.02881L84.7864 3.32328C84.5896 3.55254 84.3823 3.66717 84.1645 3.66717H81.8232C81.5938 3.66717 81.3812 3.55254 81.1844 3.32328L81.135 3.02881L81.1844 2.65231L81.4633 2.42304C81.539 2.36835 81.66 2.32523 81.8232 2.29158H84.1645V2.29263ZM92.9585 7.54682C93.3405 7.54682 93.6467 7.65935 93.8751 7.8823C94.1045 8.10631 94.2192 8.41971 94.2192 8.82355V13.2427C94.2192 13.6907 94.1097 14.0399 93.8919 14.2902C93.673 14.5405 93.3626 14.6667 92.9585 14.6667H84.4591C84.0551 14.6667 83.7415 14.5468 83.5173 14.307C83.2932 14.0672 83.1817 13.7128 83.1817 13.2427V8.82355C83.1817 7.97275 83.6078 7.54682 84.4591 7.54682H92.9585ZM94.5138 2.43987C94.8853 2.43987 95.182 2.55765 95.4062 2.79218C95.6303 3.0267 95.7418 3.3401 95.7418 3.73343C95.7197 3.89749 95.141 4.48643 94.0056 5.5013L93.7435 5.61594L93.5141 5.64854L93.3342 5.61594C93.1479 5.51813 92.9901 5.33198 92.8596 5.0596C92.8596 4.95022 92.8785 4.85242 92.9164 4.76513C92.9543 4.67784 93.028 4.56846 93.1374 4.43806L93.3668 4.20879L93.6288 3.88172H90.7466C91.4885 4.85347 92.5755 5.56756 94.0056 6.02609L95.9544 6.41942C96.1396 6.51722 96.3038 6.68654 96.4458 6.92633L96.4132 7.2534C96.4132 7.36277 96.3585 7.47741 96.249 7.5973C96.0523 7.72876 95.8776 7.79396 95.725 7.79396L95.5451 7.76136C92.9469 7.20502 91.0581 6.3153 89.8785 5.09325C89.2892 5.66116 88.6389 6.1239 87.9296 6.48462C87.2751 6.80118 86.5101 7.04096 85.6367 7.20502C85.4073 7.20502 85.2052 7.11247 85.0305 6.92633C84.9758 6.83904 84.9379 6.70863 84.9158 6.53405L84.9485 6.27218C85.0463 6.10812 85.2326 5.97245 85.5051 5.86308C86.5753 5.74319 87.6066 5.30148 88.5999 4.53691C88.7315 4.47171 88.8946 4.25296 89.0913 3.88277H86.9299C86.4932 4.35182 86.0513 4.69046 85.603 4.89764C85.4388 4.99544 85.2757 5.04487 85.1116 5.04487L84.899 4.99544C84.7022 4.89764 84.5654 4.71149 84.4897 4.43911C84.4897 4.25401 84.5875 4.05209 84.7843 3.83334C85.1768 3.56096 85.543 3.25492 85.8818 2.91733C86.2196 2.57974 86.57 2.15381 86.9299 1.64059C87.1151 1.5207 87.334 1.43341 87.5855 1.37872C87.6729 1.41133 87.7655 1.46601 87.8644 1.54279L88.1096 1.78783V2.00027C88.1096 2.22953 88.0822 2.37677 88.0275 2.44197H94.5128L94.5138 2.43987ZM84.5739 12.7516V12.9314C84.5739 13.1386 84.7643 13.2648 85.1473 13.3079H92.2545C92.5818 13.2753 92.7786 13.1502 92.8438 12.9314V12.7516H84.5739ZM84.6065 9.4777V9.59233H92.8438V9.4777C92.7786 9.17271 92.5818 8.98656 92.2545 8.92136H85.18C84.8411 8.96553 84.6507 9.15063 84.6065 9.4777ZM84.6065 10.9511V11.4422H92.8438V10.9511H84.6065ZM96.2175 15.7625C96.3816 15.894 96.5174 16.0949 96.6268 16.3683C96.5616 16.6522 96.4469 16.8699 96.2827 17.0224C96.1512 17.0876 96.0039 17.1202 95.8408 17.1202L95.5293 17.0708L91.6147 15.8593C91.4285 15.7173 91.3033 15.5049 91.238 15.2209C91.238 15.1441 91.2654 15.0737 91.3201 15.0085L91.5653 14.7634L91.8925 14.7466L92.3019 14.7634C92.8691 14.8728 93.4973 15.02 94.1855 15.2051L96.2164 15.7615L96.2175 15.7625Z" fill="#231916"/>
<path d="M102.129 7.67725H104.013C104.155 7.72142 104.27 7.76454 104.357 7.80871C104.444 7.85288 104.537 7.9286 104.636 8.03797L104.685 8.41447L104.636 8.70895C104.451 8.91613 104.243 9.03602 104.014 9.06862H102.13C102.796 9.84371 103.572 10.623 104.456 11.4086L104.505 11.8009L104.456 12.128C104.271 12.3793 104.057 12.5045 103.817 12.5045C103.686 12.4939 103.569 12.455 103.465 12.3898C103.36 12.3246 103.266 12.2373 103.178 12.128C102.709 11.6042 102.36 11.1625 102.13 10.8018V16.2516C102.098 16.524 101.988 16.7375 101.803 16.89L101.409 16.9552C101.322 16.9552 101.202 16.9331 101.05 16.89C100.831 16.7049 100.722 16.4914 100.722 16.2516V11.2761C100.133 12.2804 99.5101 13.1092 98.8556 13.7644C98.6809 13.9936 98.4788 14.1083 98.2494 14.1083C97.9548 14.1083 97.7475 13.9936 97.6275 13.7644C97.5623 13.6119 97.5297 13.4972 97.5297 13.4205C97.5297 13.3111 97.5623 13.1912 97.6275 13.0608C98.7188 11.762 99.6364 10.4316 100.379 9.06757H98.2505C97.978 9.03497 97.7696 8.91507 97.6286 8.70789C97.5634 8.59852 97.5307 8.50071 97.5307 8.41342C97.5307 8.31562 97.5634 8.19047 97.6286 8.03692C97.6938 7.93912 97.778 7.86234 97.8822 7.80766C97.9864 7.75297 98.1084 7.70985 98.2505 7.6762H100.723V2.17802C100.723 1.97084 100.833 1.76892 101.051 1.57226L101.411 1.52283L101.804 1.57226C101.989 1.74683 102.099 1.94876 102.131 2.17802V7.67725H102.129ZM99.6237 3.14346C99.7111 3.41585 99.831 3.85545 99.9836 4.46122C100.136 5.06698 100.256 5.5497 100.344 5.90938V5.99141C100.344 6.23119 100.259 6.41944 100.09 6.55616C99.9205 6.69288 99.7542 6.76124 99.5901 6.76124C99.4585 6.71812 99.3607 6.69077 99.2954 6.67921C99.0881 6.5814 98.9408 6.38999 98.8535 6.10604L98.0842 3.56939C98.019 3.4169 97.9864 3.2907 97.9864 3.19289C97.9864 3.08352 98.0358 2.93102 98.1337 2.73436C98.3305 2.5377 98.5704 2.41781 98.8545 2.37469C99.1271 2.47249 99.3459 2.62604 99.5101 2.83322L99.6248 3.14452L99.6237 3.14346ZM102.539 5.72954C102.713 5.3583 102.91 4.90082 103.128 4.355C103.346 3.80918 103.527 3.32435 103.669 2.89842C103.843 2.64707 104.078 2.52192 104.373 2.52192C104.613 2.57661 104.832 2.71333 105.027 2.93102C105.06 3.01831 105.077 3.15503 105.077 3.34013C105.077 3.50419 105.044 3.68403 104.979 3.88069C104.652 4.7315 104.285 5.52341 103.881 6.25433C103.695 6.50568 103.51 6.6466 103.325 6.68026L103.013 6.71286C102.816 6.71286 102.669 6.6424 102.571 6.50042C102.549 6.44573 102.527 6.37527 102.506 6.28798C102.484 6.20069 102.473 6.146 102.473 6.12392L102.539 5.79685V5.73164V5.72954ZM111.415 11.3602L112.381 11.213H112.577C112.697 11.213 112.788 11.2214 112.848 11.2372C112.908 11.254 112.987 11.294 113.086 11.3602C113.217 11.5895 113.283 11.7914 113.283 11.966C113.195 12.2605 113.037 12.4519 112.808 12.5392L111.416 12.7516V15.9108C111.372 16.1285 111.258 16.3305 111.072 16.5166C110.93 16.5713 110.799 16.5986 110.678 16.5986C110.58 16.5986 110.466 16.5713 110.334 16.5166C110.115 16.3525 110.007 16.1506 110.007 15.9108V12.9651L105.306 13.7181L104.995 13.7675C104.83 13.7675 104.711 13.7297 104.635 13.6529C104.427 13.5109 104.323 13.3153 104.323 13.0639L104.34 12.9987C104.373 12.7474 104.51 12.5623 104.749 12.4424L110.007 11.5253V2.48932C110.007 2.26005 110.116 2.05287 110.334 1.86778L110.678 1.83518L111.072 1.86778C111.257 2.07496 111.372 2.28214 111.416 2.48932V11.3602H111.415ZM106.125 6.49937C107.02 7.27446 107.839 7.95594 108.581 8.54488C108.853 8.78467 108.99 9.04653 108.99 9.33049C108.958 9.63653 108.821 9.87105 108.581 10.0341C108.406 10.0993 108.28 10.1319 108.204 10.1319C108.062 10.1319 107.92 10.0824 107.778 9.98463C106.98 9.22111 106.206 8.57223 105.452 8.03692C105.07 7.74245 104.879 7.44798 104.879 7.15351C104.879 6.91373 104.999 6.69498 105.239 6.49937C105.381 6.44468 105.518 6.41734 105.648 6.41734L105.96 6.46677L106.124 6.49937H106.125ZM106.96 2.93102C107.736 3.59674 108.216 4.00584 108.402 4.15833C108.522 4.25614 108.789 4.46437 109.205 4.77987C109.26 4.85665 109.308 4.94078 109.352 5.03333C109.395 5.12588 109.445 5.25944 109.5 5.43402C109.412 5.7064 109.254 5.89781 109.025 6.00718L108.746 6.05661C108.593 6.05661 108.457 6.00718 108.337 5.90938C107.965 5.63699 107.567 5.32885 107.141 4.98495C106.715 4.64105 106.295 4.28348 105.881 3.91329C105.673 3.77132 105.569 3.56413 105.569 3.29175L105.586 3.24232C105.586 3.14452 105.624 3.04566 105.701 2.94785C105.776 2.85005 105.881 2.76276 106.012 2.68598L106.242 2.63655C106.384 2.63655 106.564 2.69124 106.782 2.80062L106.962 2.93208L106.96 2.93102Z" fill="#231916"/>
<path d="M120.061 1.49017C120.465 1.49017 120.782 1.59955 121.012 1.81725C121.241 2.03599 121.356 2.34624 121.356 2.75008V6.28583C121.356 7.1482 120.924 7.57939 120.062 7.57939H116.214V16.3357C116.182 16.5534 116.077 16.7616 115.903 16.9572L115.526 16.9898L115.182 16.9572C114.963 16.7711 114.855 16.5639 114.855 16.3357V2.75114C114.855 2.35781 114.961 2.04967 115.175 1.82671C115.387 1.60375 115.695 1.49123 116.1 1.49123H120.062L120.061 1.49017ZM116.213 3.42211V3.91324H119.947V3.42211C119.914 3.11712 119.728 2.93097 119.39 2.86577H116.802C116.453 2.93097 116.256 3.11712 116.213 3.42211ZM116.213 5.27201V6.18802H119.39C119.728 6.18802 119.914 6.00292 119.947 5.63168V5.27201H116.213ZM117.507 9.67433C117.245 9.67433 117.043 9.5597 116.901 9.33044C116.847 9.24315 116.819 9.14008 116.819 9.01914C116.819 8.87716 116.847 8.75727 116.901 8.65946C117.021 8.47437 117.223 8.34817 117.507 8.28296H126.646C126.886 8.34817 127.093 8.47437 127.267 8.65946L127.3 9.01914L127.267 9.33044C127.071 9.5597 126.863 9.67433 126.646 9.67433H124.811V11.0983H127.317C127.557 11.153 127.764 11.2729 127.939 11.458L127.956 11.8345L127.939 12.129C127.732 12.3687 127.524 12.4886 127.317 12.4886H124.811V16.0896C124.779 16.3294 124.669 16.526 124.484 16.6785C124.386 16.7216 124.255 16.7437 124.092 16.7437C123.972 16.7437 123.862 16.7216 123.764 16.6785C123.546 16.526 123.437 16.3294 123.437 16.0896V12.4886H120.604C120.604 13.1323 120.555 13.6749 120.457 14.1166C120.359 14.5583 120.217 14.9317 120.031 15.2377C119.812 15.5648 119.586 15.8519 119.351 16.0969C119.116 16.342 118.879 16.5365 118.639 16.6785C118.507 16.7542 118.423 16.7984 118.385 16.8089C118.346 16.8194 118.284 16.8257 118.197 16.8257L117.952 16.7763C117.733 16.7216 117.585 16.5576 117.51 16.2852L117.493 16.2032C117.493 15.996 117.575 15.7993 117.738 15.6142C118.36 15.1231 118.841 14.4027 119.18 13.4541L119.229 12.4886H116.969C116.729 12.4886 116.527 12.3687 116.363 12.129C116.297 11.9975 116.265 11.8997 116.265 11.8345C116.265 11.7914 116.275 11.7314 116.297 11.6546C116.319 11.5789 116.34 11.5127 116.363 11.458C116.505 11.2729 116.707 11.153 116.969 11.0983H119.229V9.67433H117.51H117.507ZM123.435 9.67433H120.602V11.0983H123.435V9.67433ZM123.878 7.6772C123.027 7.6772 122.601 7.24601 122.601 6.38468V2.75114C122.601 1.91084 123.027 1.49123 123.878 1.49123H128.235C128.627 1.49123 128.939 1.6006 129.168 1.8183C129.397 2.03705 129.512 2.34729 129.512 2.75114V15.4354C129.283 16.1769 128.726 16.6144 127.842 16.7448H127.71C127.012 16.7448 126.351 16.6249 125.729 16.3851C125.51 16.221 125.402 16.0191 125.402 15.7793C125.402 15.5395 125.522 15.3313 125.762 15.1904C125.849 15.1462 125.952 15.1252 126.073 15.1252C126.215 15.1252 126.335 15.1473 126.433 15.1904C126.662 15.2777 126.823 15.3324 126.916 15.3544C127.009 15.3765 127.126 15.3871 127.269 15.3871C127.498 15.3871 127.705 15.3218 127.89 15.1904C127.923 15.1578 127.961 15.0926 128.005 14.9937C128.048 14.8959 128.087 14.7918 128.12 14.6824V7.6772H123.878ZM123.992 3.48731V3.94584H128.119V3.48731C128.064 3.13815 127.874 2.93097 127.545 2.86577H124.565C124.183 2.93097 123.992 3.13815 123.992 3.48731ZM123.992 5.32039V5.72949C123.992 6.10073 124.182 6.28583 124.565 6.28583H128.119V5.32039H123.992Z" fill="#231916"/>
<path d="M134.227 2.24318C134.227 2.03599 134.337 1.82881 134.555 1.62163L134.882 1.5722L135.275 1.62163C135.44 1.80778 135.548 2.01496 135.603 2.24318V3.56934H138.026C138.244 3.60194 138.463 3.71658 138.682 3.91324L138.699 4.0773C138.699 4.16459 138.709 4.2298 138.731 4.27397C138.731 4.40543 138.714 4.50323 138.682 4.56844C138.495 4.80822 138.278 4.92811 138.026 4.92811H134.341V6.77801H136.764C137.594 6.77801 138.009 7.19868 138.009 8.03792V10.8038C138.009 14.328 137.354 16.2873 136.044 16.6796L135.127 16.729L134.259 16.6796C134.007 16.6144 133.827 16.4556 133.718 16.2053L133.685 15.976C133.685 15.8782 133.713 15.7793 133.767 15.6815L133.882 15.5017C134.046 15.3713 134.269 15.2672 134.554 15.1904H135.504C135.853 15.1904 136.139 14.9916 136.364 14.593C136.587 14.1944 136.699 13.6139 136.699 12.8504V8.54588C136.667 8.2409 136.475 8.05475 136.126 7.98955H134.275C134.275 8.87296 134.225 9.7164 134.127 10.5178C134.03 11.3192 133.871 12.1132 133.653 12.8988C133.303 14.2081 132.795 15.4302 132.13 16.5649C131.945 16.6964 131.764 16.7616 131.589 16.7616H131.475C131.245 16.729 131.087 16.5818 131 16.3199L130.951 16.1401C130.951 16.0422 130.961 15.9655 130.983 15.9108L131.115 15.6489C131.628 14.612 132.048 13.4993 132.375 12.3098C132.55 11.622 132.687 10.9048 132.785 10.1581C132.883 9.41036 132.932 8.67103 132.932 7.94012V5.04274H132.228C131.966 5.04274 131.759 4.91759 131.606 4.66624C131.541 4.56844 131.508 4.46432 131.508 4.35495L131.541 4.12568L131.606 3.91324C131.661 3.82595 131.74 3.75233 131.844 3.69239C131.947 3.63244 132.075 3.59143 132.229 3.56934H134.227V2.24318ZM145.823 3.56934C146.008 3.60194 146.21 3.71658 146.429 3.91324L146.478 4.27291L146.429 4.56738C146.242 4.80717 146.041 4.92706 145.823 4.92706L145.282 4.99226C145.282 6.56347 145.095 8.04213 144.725 9.42719C144.398 10.6387 143.917 11.8282 143.283 12.9955C144.222 14.0325 145.325 14.9159 146.592 15.6468C146.789 15.8109 146.903 15.996 146.936 16.2032C146.838 16.5081 146.684 16.7374 146.477 16.891L146.051 16.9236C145.865 16.9236 145.745 16.913 145.691 16.891C145.145 16.5744 144.58 16.1895 143.996 15.7373C143.412 15.284 142.841 14.7739 142.285 14.2071C141.401 15.0579 140.341 15.8277 139.108 16.5145C139.01 16.5691 138.863 16.607 138.666 16.6291C138.524 16.6291 138.404 16.607 138.306 16.5639C138.044 16.4324 137.891 16.2147 137.847 15.9097C137.847 15.7457 137.875 15.6153 137.929 15.5164C137.984 15.4186 138.082 15.3092 138.224 15.1893C138.442 15.102 138.683 14.9874 138.945 14.8454C139.207 14.7035 139.479 14.5341 139.763 14.3385C140.32 13.9568 140.909 13.4982 141.532 12.964C140.954 11.6546 140.407 9.85943 139.895 7.57939C139.698 8.02635 139.48 8.34817 139.24 8.54483C139.088 8.63212 138.918 8.68681 138.733 8.70889L138.471 8.65946C138.209 8.52801 138.057 8.32188 138.012 8.03792L137.996 7.94012C137.996 7.74345 138.1 7.54153 138.307 7.33435C138.679 6.70124 138.975 5.99767 139.199 5.22258C139.424 4.44749 139.585 3.58091 139.682 2.61968C139.682 2.36833 139.792 2.15063 140.01 1.96448C140.174 1.89928 140.321 1.86667 140.452 1.86667L140.796 1.93188C140.97 2.04125 141.107 2.23792 141.205 2.52082V2.83212L141.156 3.60089L141.205 3.56829H145.824L145.823 3.56934ZM143.857 4.92811H140.958L141.04 4.99331C141.04 6.17225 141.187 7.36695 141.482 8.57743C141.612 9.11169 141.758 9.61649 141.915 10.0919C142.073 10.5662 142.284 11.1099 142.546 11.7209C142.753 11.2193 142.936 10.7092 143.094 10.1907C143.252 9.67223 143.392 9.10748 143.512 8.49646C143.741 7.38378 143.856 6.19433 143.856 4.92811H143.857Z" fill="#231916"/>
<path d="M161.773 1.96558C161.981 1.99818 162.183 2.11281 162.379 2.30947L162.429 2.66915L162.379 2.96362C162.183 3.21497 161.981 3.34012 161.773 3.34012H156.533V10.0667H162.854C162.996 10.0667 163.176 10.1213 163.394 10.2307C163.416 10.3401 163.44 10.4516 163.467 10.5662C163.495 10.6808 163.508 10.7713 163.508 10.8365L163.492 11.0489C163.394 11.2235 163.17 11.3602 162.82 11.458H156.532V15.8446C156.477 16.117 156.368 16.3189 156.204 16.4503C156.095 16.4724 156.006 16.4914 155.934 16.5071C155.862 16.524 155.821 16.5313 155.811 16.5313C155.746 16.5313 155.688 16.5229 155.639 16.5071C155.59 16.4903 155.538 16.4714 155.484 16.4503C155.254 16.2863 155.14 16.0844 155.14 15.8446V11.458H148.638C148.387 11.458 148.185 11.3381 148.032 11.0984C147.967 10.9669 147.935 10.8638 147.935 10.7871C147.935 10.7324 147.967 10.6177 148.032 10.4432C148.164 10.2686 148.365 10.1434 148.638 10.0667H155.14V3.34012H149.129C148.899 3.34012 148.708 3.23075 148.555 3.01305C148.501 2.93733 148.473 2.84373 148.473 2.73435C148.473 2.61446 148.501 2.48931 148.555 2.35785C148.653 2.26005 148.749 2.17802 148.842 2.11281C148.934 2.04761 149.035 1.99818 149.145 1.96558H161.771H161.773ZM148.934 8.31561C149.72 7.36594 150.692 6.03031 151.849 4.30556C152.034 4.13098 152.258 4.04369 152.52 4.04369H152.602C152.887 4.16358 153.099 4.35499 153.241 4.61686C153.241 4.91133 153.159 5.16794 152.996 5.38563C152.342 6.31321 151.975 6.83169 151.899 6.94107C151.309 7.74875 150.779 8.45233 150.31 9.05284C150.048 9.3147 149.84 9.44511 149.688 9.44511L149.655 9.41251C149.622 9.42303 149.597 9.42934 149.581 9.42934C149.566 9.42934 149.53 9.4346 149.475 9.44616C149.268 9.44616 149.071 9.34836 148.886 9.15169C148.809 8.9992 148.771 8.88457 148.771 8.80779C148.771 8.74259 148.785 8.66897 148.812 8.58694C148.839 8.50491 148.881 8.41552 148.935 8.31666L148.934 8.31561ZM161.494 9.00341C161.09 8.47967 160.719 8.01062 160.381 7.59626C160.316 7.52054 159.66 6.72337 158.415 5.20685C158.361 5.14164 158.314 5.06803 158.276 4.986C158.238 4.90397 158.22 4.82509 158.22 4.74832C158.22 4.63894 158.247 4.54114 158.302 4.45385C158.422 4.22458 158.624 4.07209 158.908 3.99532C159.093 4.0174 159.312 4.12047 159.563 4.30661C160.339 5.19002 160.911 5.86204 161.283 6.31952C161.774 6.92003 162.249 7.54157 162.708 8.1852C162.74 8.26197 162.771 8.35452 162.798 8.4639C162.826 8.57327 162.839 8.6553 162.839 8.70894L162.822 8.873C162.658 9.13487 162.446 9.29893 162.184 9.36413L162.102 9.38096C161.883 9.38096 161.692 9.27158 161.528 9.05389L161.495 9.00446L161.494 9.00341Z" fill="#231916"/>
<path d="M179.132 9.20003C179.645 9.39669 179.901 9.76162 179.901 10.2969V10.4768L179.622 11.2455C179.557 11.4748 179.42 11.6115 179.213 11.6546L179 11.6872C178.935 11.6872 178.858 11.6704 178.771 11.6378C178.684 11.6052 178.624 11.5831 178.591 11.5726C178.449 11.4527 178.378 11.3055 178.378 11.1309L178.411 10.9837C178.476 10.7439 178.509 10.5914 178.509 10.5251C178.498 10.4379 178.487 10.3884 178.476 10.3779H166.963C166.581 10.4105 166.39 10.5577 166.39 10.8196V11.3602C166.345 11.5568 166.237 11.7262 166.062 11.8671C165.91 11.9323 165.773 11.9649 165.653 11.9649C165.588 11.9649 165.478 11.9323 165.326 11.8671C165.118 11.7356 164.999 11.5674 164.966 11.3602V10.4105C164.966 9.60282 165.397 9.19898 166.259 9.19898H179.131L179.132 9.20003ZM173.384 13.1933L173.253 13.3405V13.5529L173.384 13.6024H177.102C177.342 13.635 177.544 13.7338 177.708 13.8968C177.763 14.0283 177.79 14.1482 177.79 14.2565C177.79 14.3543 177.763 14.4584 177.708 14.5678C177.556 14.7424 177.369 14.8297 177.151 14.8297L177.102 14.8128H173.368L173.254 14.9275V15.3366L173.368 15.4344H179.33C179.57 15.4891 179.782 15.5984 179.968 15.7614L180.001 16.0559L179.968 16.3672C179.739 16.5744 179.526 16.6785 179.33 16.6785H165.77C165.617 16.6785 165.494 16.6543 165.402 16.6049C165.309 16.5555 165.235 16.4818 165.181 16.384C165.126 16.2862 165.098 16.1769 165.098 16.057C165.098 15.9371 165.121 15.8382 165.164 15.7625C165.284 15.5984 165.486 15.4901 165.77 15.4354H171.781L171.912 15.3376V14.9285L171.781 14.8139H167.588L167.506 14.8307C167.287 14.8307 167.107 14.7434 166.965 14.5688C166.9 14.471 166.867 14.3669 166.867 14.2575C166.867 14.1377 166.9 14.0178 166.965 13.8979C167.097 13.7338 167.303 13.636 167.587 13.6034H171.779L171.911 13.554V13.3415L171.779 13.2437L166.784 13.3415L166.719 13.3584C166.599 13.3584 166.5 13.3037 166.424 13.1943C166.359 12.9976 166.327 12.8777 166.327 12.8346C166.327 12.7473 166.349 12.6821 166.392 12.638C166.424 12.5181 166.517 12.4308 166.671 12.3761L169.078 12.3435C169.111 12.3551 169.147 12.3466 169.185 12.3193C169.222 12.292 169.258 12.2562 169.291 12.2131L169.323 12.1311V11.967L169.291 11.8692H167.375C167.113 11.8692 166.905 11.7819 166.753 11.6073C166.687 11.4759 166.655 11.3781 166.655 11.3128C166.655 11.2256 166.687 11.1162 166.753 10.9858C166.905 10.8217 167.113 10.7239 167.375 10.6913H177.496C177.758 10.7239 177.97 10.8385 178.134 11.0352C178.189 11.133 178.216 11.2476 178.216 11.3791C178.216 11.499 178.189 11.5915 178.134 11.6578C178.004 11.7672 177.862 11.8219 177.708 11.8219L177.446 11.7724L178.806 12.5254C178.926 12.6232 178.986 12.7379 178.986 12.8693L178.969 13.0334C178.871 13.2521 178.707 13.3931 178.477 13.4593L178.412 13.4762C178.335 13.4762 178.265 13.4709 178.2 13.4593C178.134 13.4488 178.008 13.4099 177.823 13.3447L176.972 12.985H176.874L176.677 13.0344L173.385 13.1985L173.384 13.1933ZM171.533 2.43984L171.516 2.39041C171.516 2.18323 171.626 2.01391 171.844 1.8835C171.942 1.84038 172.068 1.8183 172.22 1.8183C172.351 1.8183 172.477 1.84038 172.597 1.8835C172.75 2.01496 172.859 2.20006 172.924 2.43984V2.53765L173.039 2.63545H178.639C178.879 2.69014 179.071 2.80477 179.213 2.97935C179.268 3.07716 179.295 3.19179 179.295 3.32325C179.295 3.44314 179.268 3.52517 179.213 3.56829C179.06 3.77547 178.869 3.87959 178.639 3.87959H173.039L172.924 3.97739V4.43593L173.039 4.53373H177.641C177.848 4.5779 178.067 4.66519 178.295 4.7956L178.328 5.1721L178.295 5.4508C178.088 5.65798 177.869 5.76209 177.641 5.76209H167.013C166.773 5.76209 166.576 5.65798 166.423 5.4508C166.358 5.34142 166.325 5.24887 166.325 5.1721C166.325 5.07429 166.358 4.94809 166.423 4.7956C166.587 4.67571 166.783 4.58842 167.013 4.53373H171.402L171.533 4.43593V3.97739L171.402 3.87959H165.949C165.676 3.87959 165.468 3.77547 165.327 3.56829C165.262 3.50309 165.229 3.42106 165.229 3.32325C165.229 3.24753 165.262 3.1329 165.327 2.97935C165.458 2.80477 165.665 2.69014 165.949 2.63545H171.402L171.533 2.53765V2.43984ZM167.767 8.8393C166.894 8.8393 166.457 8.37551 166.457 7.44793V7.31647C166.533 6.55295 166.971 6.17119 167.767 6.17119H176.888C177.282 6.17119 177.587 6.27531 177.805 6.48249C178.023 6.68967 178.132 6.96837 178.132 7.31752V7.44898C178.132 8.37656 177.718 8.84035 176.887 8.84035H167.766L167.767 8.8393ZM168.176 7.82443H176.643L176.775 7.7098V7.41533L176.643 7.31752H168.176L168.062 7.41533V7.7098L168.176 7.82443ZM170.927 12.3424L175.693 12.212L175.251 11.8681H171.336L171.124 11.9176L170.927 12.2615V12.3435V12.3424Z" fill="#231916"/>
<path d="M47.6099 21.3828H50.8363C51.5634 21.3828 52.118 21.4385 52.5 21.55C53.0124 21.7014 53.4523 21.9696 53.8174 22.3545C54.1836 22.7405 54.4614 23.2116 54.6519 23.7701C54.8424 24.3285 54.9381 25.0163 54.9381 25.8356C54.9381 26.5549 54.8487 27.1743 54.6698 27.6949C54.4509 28.3301 54.1394 28.8455 53.7332 29.2388C53.427 29.5364 53.0135 29.7688 52.4926 29.936C52.1032 30.0591 51.5824 30.1211 50.9299 30.1211H47.6078V21.3838L47.6099 21.3828ZM49.3757 22.8614V28.6488H50.6932C51.1856 28.6488 51.5424 28.6215 51.7602 28.5657C52.0464 28.4942 52.2842 28.3733 52.4726 28.2018C52.661 28.0315 52.8156 27.7496 52.9346 27.3584C53.0535 26.9672 53.1134 26.434 53.1134 25.7577C53.1134 25.0815 53.0535 24.5641 52.9346 24.2023C52.8156 23.8405 52.6483 23.5587 52.4337 23.3557C52.219 23.1527 51.9464 23.016 51.6171 22.9445C51.3708 22.8888 50.8878 22.8614 50.1681 22.8614H49.3746H49.3757Z" fill="#BBBABA"/>
<path d="M64.3204 30.1211H62.3999L61.637 28.1366H58.1424L57.4205 30.1211H55.5484L58.9537 21.3838H60.8204L64.3214 30.1211H64.3204ZM61.0698 26.6643L59.865 23.4219L58.6843 26.6643H61.0698Z" fill="#BBBABA"/>
<path d="M66.3176 30.1211V22.8614H63.7237V21.3838H70.671V22.8614H68.0823V30.1211H66.3176Z" fill="#BBBABA"/>
<path d="M78.7873 30.1211H76.8669L76.1039 28.1366H72.6093L71.8874 30.1211H70.0154L73.4206 21.3838H75.2874L78.7883 30.1211H78.7873ZM75.5378 26.6643L74.3329 23.4219L73.1523 26.6643H75.5378Z" fill="#BBBABA"/>
<path d="M79.7122 30.1211V28.4468H81.3875V30.1211H79.7122Z" fill="#BBBABA"/>
<path d="M87.1835 26.9083V25.4359H90.9886V28.917C90.6193 29.2745 90.0826 29.59 89.3818 29.8614C88.6799 30.1338 87.9696 30.2694 87.2498 30.2694C86.3354 30.2694 85.5388 30.078 84.858 29.6942C84.1782 29.3103 83.6668 28.7624 83.3258 28.0493C82.9838 27.3363 82.8134 26.5601 82.8134 25.722C82.8134 24.8123 83.0038 24.0035 83.3858 23.2957C83.7678 22.589 84.3255 22.0463 85.0611 21.6688C85.6219 21.3785 86.3196 21.2334 87.1541 21.2334C88.239 21.2334 89.0871 21.4606 89.6975 21.9159C90.3078 22.3713 90.7003 23.0002 90.875 23.8026L89.1219 24.1308C88.9987 23.7017 88.7672 23.363 88.4273 23.1149C88.0875 22.8667 87.6634 22.7426 87.1541 22.7426C86.3827 22.7426 85.7692 22.9865 85.3147 23.4756C84.859 23.9646 84.6317 24.6892 84.6317 25.6515C84.6317 26.6885 84.8622 27.4667 85.3231 27.9852C85.784 28.5037 86.388 28.7634 87.1362 28.7634C87.5055 28.7634 87.877 28.6908 88.2485 28.5457C88.6199 28.4006 88.9388 28.225 89.206 28.0188V26.9104H87.1846L87.1835 26.9083Z" fill="#BBBABA"/>
<path d="M92.2587 25.8061C92.2587 24.9164 92.3924 24.1686 92.6586 23.565C92.8575 23.1201 93.129 22.7205 93.4731 22.3671C93.8172 22.0137 94.1939 21.7508 94.6033 21.5804C95.1483 21.3501 95.7766 21.2344 96.4879 21.2344C97.7759 21.2344 98.8072 21.6341 99.5795 22.4323C100.353 23.2305 100.739 24.3411 100.739 25.764C100.739 27.1869 100.355 28.2786 99.588 29.0747C98.8208 29.8719 97.7949 30.2694 96.5111 30.2694C95.2273 30.2694 94.1771 29.8729 93.41 29.08C92.6428 28.287 92.2587 27.1953 92.2587 25.805V25.8061ZM94.0782 25.7461C94.0782 26.7358 94.3065 27.4856 94.7643 27.9957C95.2209 28.5068 95.8018 28.7613 96.5058 28.7613C97.2098 28.7613 97.7864 28.5078 98.2379 28.0009C98.6893 27.494 98.9145 26.7347 98.9145 25.7209C98.9145 24.7071 98.6946 23.973 98.2558 23.4798C97.817 22.9876 97.2329 22.7404 96.5058 22.7404C95.7787 22.7404 95.1915 22.9897 94.7464 23.4882C94.3012 23.9867 94.0782 24.7386 94.0782 25.744V25.7461Z" fill="#BBBABA"/>
<path d="M104.347 30.1211L101.222 21.3838H103.136L105.349 27.8506L107.49 21.3838H109.362L106.231 30.1211H104.346H104.347Z" fill="#BBBABA"/>
<path d="M109.13 30.1211V28.4468H110.805V30.1211H109.13Z" fill="#BBBABA"/>
<path d="M114.503 30.1211V22.8614H111.909V21.3838H118.856V22.8614H116.268V30.1211H114.502H114.503Z" fill="#BBBABA"/>
<path d="M121.236 30.1211L119.148 21.3838H120.955L122.272 27.3857L123.871 21.3838H125.97L127.502 27.4867L128.844 21.3838H130.621L128.499 30.1211H126.627L124.885 23.5892L123.15 30.1211H121.236Z" fill="#BBBABA"/>
</g>
<defs>
<clipPath id="clip0_2004_477">
<rect width="180" height="36" fill="white"/>
</clipPath>
</defs>
</svg>
