<svg xmlns="http://www.w3.org/2000/svg" viewBox="0 0 48 48" width="48" height="48">
  <rect x="2" y="2" width="44" height="44" rx="10" fill="#06C755"/>
  <path fill="#fff" d="M24 10.5c-8.56 0-15.5 5.62-15.5 12.55 0 6.21 5.51 11.41 12.95 12.4.5.11 1.19.33 1.36.77.16.39.1 1 .05 1.4l-.22 1.32c-.07.39-.31 1.53 1.34.83 1.65-.69 8.9-5.24 12.14-8.97 2.24-2.46 3.38-4.95 3.38-7.75 0-6.93-6.94-12.55-15.5-12.55zm-6.9 16.65h-3.08a.81.81 0 0 1-.81-.81v-6.16a.81.81 0 1 1 1.62 0v5.35h2.27a.81.81 0 0 1 0 1.62zm3.18-.81a.81.81 0 1 1-1.62 0v-6.16a.81.81 0 1 1 1.62 0zm7.42 0a.81.81 0 0 1-1.46.48l-3.16-4.3v3.82a.81.81 0 1 1-1.62 0v-6.16a.81.81 0 0 1 1.46-.48l3.16 4.3v-3.82a.81.81 0 1 1 1.62 0zm4.98-3.9a.81.81 0 0 1 0 1.62h-2.27v1.46h2.27a.81.81 0 0 1 0 1.63h-3.08a.81.81 0 0 1-.81-.81v-6.16c0-.45.36-.81.81-.81h3.08a.81.81 0 0 1 0 1.62h-2.27v1.45z"/>
</svg>
