<svg xmlns="http://www.w3.org/2000/svg" viewBox="0 0 48 48" width="48" height="48">
  <circle cx="24" cy="24" r="22" fill="#25D366"/>
  <path fill="#fff" d="M24 10.8c-7.28 0-13.2 5.92-13.2 13.2 0 2.33.61 4.6 1.77 6.6L10.7 36.9a.9.9 0 0 0 1.1 1.1l6.42-1.84A13.14 13.14 0 0 0 24 37.2c7.28 0 13.2-5.92 13.2-13.2S31.28 10.8 24 10.8zm0 24.2c-2.02 0-4-.55-5.72-1.6a.9.9 0 0 0-.71-.1l-4.6 1.32 1.24-4.5a.9.9 0 0 0-.1-.72A11.03 11.03 0 0 1 12.96 24c0-6.09 4.95-11.04 11.04-11.04S35.04 17.91 35.04 24 30.09 35 24 35zm6.06-8.05c-.33-.17-1.96-.97-2.27-1.08-.3-.11-.52-.17-.74.17-.22.33-.85 1.07-1.05 1.3-.19.22-.38.25-.71.08-.33-.17-1.4-.52-2.66-1.65a10 10 0 0 1-1.84-2.3c-.19-.33-.02-.51.15-.68.15-.15.33-.39.5-.58.16-.19.22-.33.33-.55.11-.22.06-.42-.03-.59-.08-.17-.74-1.79-1.02-2.45-.27-.64-.54-.55-.74-.56h-.63c-.22 0-.58.08-.88.42-.3.33-1.16 1.13-1.16 2.75s1.19 3.19 1.35 3.41c.17.22 2.33 3.56 5.65 5 .79.34 1.4.54 1.88.7.79.25 1.51.21 2.08.13.63-.1 1.96-.8 2.23-1.57.28-.78.28-1.44.2-1.58-.08-.14-.3-.22-.63-.39z"/>
</svg>
